<?xml version="1.0" encoding="utf-8"?>
<!-- Generator: Adobe Illustrator 24.2.3, SVG Export Plug-In . SVG Version: 6.00 Build 0)  -->
<svg version="1.1" id="Layer_1" xmlns="http://www.w3.org/2000/svg" xmlns:xlink="http://www.w3.org/1999/xlink" x="0px" y="0px"
	 viewBox="0 0 1920 897.7" style="enable-background:new 0 0 1920 897.7;" xml:space="preserve">
<style type="text/css">
	.st0{fill:url(#SVGID_1_);}
</style>
<linearGradient id="SVGID_1_" gradientUnits="userSpaceOnUse" x1="1537.4159" y1="402.9057" x2="1537.4282" y2="405.1026" gradientTransform="matrix(2629.5088 0 0 1514.0253 -4041702.25 -611051.375)">
	<stop  offset="0.189" style="stop-color:#5E8AC2"/>
	<stop  offset="0.647" style="stop-color:#69C0E9"/>
	<stop  offset="1" style="stop-color:#A5D7E2"/>
</linearGradient>
<path class="st0" d="M5.7,581.7c144.8,64.4,280.3,142,433.4,195.4c152.8,53.4,319.8,81.5,487.3,99.7c325,35.5,668.7,33.4,967.9-66.4
	c1.8-0.6,3.6-1.3,5.4-1.9c6.8,2.6,13.6,5.1,20.3,7.7V140.7c-112.5-31.1-223.7-68.1-336.5-96C1497.1,23.4,1409.7,7.5,1320,3.8
	c-165-6.7-327.6,28.7-482,82.6l-4.4,1.6c-47.4,16.7-93.9,35-139.6,54.5c-33.4,14.3-66.6,29.1-99.8,44.1
	c-110.8,50-221.2,100.8-340,133C172.6,341.7,85.2,354,0,350.5V583C1.9,582.5,3.8,582.1,5.7,581.7z"/>
</svg>
