<?xml version="1.0" encoding="utf-8"?>
<!-- Generator: Adobe Illustrator 24.3.0, SVG Export Plug-In . SVG Version: 6.00 Build 0)  -->
<svg version="1.1" id="Layer_1" xmlns="http://www.w3.org/2000/svg" xmlns:xlink="http://www.w3.org/1999/xlink" x="0px" y="0px"
	 viewBox="0 0 1920 1211" style="enable-background:new 0 0 1920 1211;" xml:space="preserve">
<style type="text/css">
	.st0{fill:url(#Path_52_1_);}
</style>
<linearGradient id="Path_52_1_" gradientUnits="userSpaceOnUse" x1="2200.0859" y1="695.9608" x2="2198.7468" y2="695.9608" gradientTransform="matrix(1920.0002 0 0 -1210.1807 -4222013 842843.75)">
	<stop  offset="0.189" style="stop-color:#4179B6"/>
	<stop  offset="0.647" style="stop-color:#54B5E3"/>
	<stop  offset="1" style="stop-color:#95CEDB"/>
</linearGradient>
<path id="Path_52" class="st0" d="M1683,308.3c-105-31.3-202.6-80.8-300.6-129.4c-29.3-14.5-58.6-29-88.2-42.9
	c-40.3-18.9-81.5-36.8-123.4-53l-3.9-1.5C1030.4,29,886.7-5.4,740.8,1.1c-79.4,3.6-156.6,19.1-233,39.8
	C338.6,86.9,173.7,158.6,0.1,184.1v1016.4c37.6,4.9,188.7,24.8,345.6-10.7s309-106.3,407.9-147.8c176-73.8,360.3-130.8,550-151.3
	s385.4-3.4,563.1,66.3c18.1,7.1,36.2,14.9,53.4,24.1V337.7C1840.9,343,1759.1,330.9,1683,308.3z"/>
</svg>
