<svg id="Layer_1" data-name="Layer 1" xmlns="http://www.w3.org/2000/svg" viewBox="0 0 192.94 192.94">
  <circle cx="96.47" cy="96.47" r="66.5" style="fill: none;stroke: #fff;stroke-linecap: round;stroke-linejoin: round;stroke-width: 5px"/>
  <g id="Group_28" data-name="Group 28">
    <path id="Path_66" data-name="Path 66" d="M137.32,76.52A10.57,10.57,0,0,0,129.89,69c-6.56-1.77-32.83-1.77-32.83-1.77s-26.27,0-32.82,1.77a10.57,10.57,0,0,0-7.43,7.48c-1.76,6.59-1.76,20.35-1.76,20.35s0,13.76,1.76,20.35a10.57,10.57,0,0,0,7.43,7.48c6.55,1.76,32.82,1.76,32.82,1.76s26.28,0,32.83-1.76a10.57,10.57,0,0,0,7.43-7.48c1.75-6.59,1.75-20.35,1.75-20.35S139.07,83.11,137.32,76.52ZM88.47,109.36v-25l22,12.49Z" style="fill: #fff"/>
  </g>
</svg>
