<?xml version="1.0" encoding="utf-8"?>
<!-- Generator: Adobe Illustrator 24.1.3, SVG Export Plug-In . SVG Version: 6.00 Build 0)  -->
<svg version="1.1" id="Layer_1" xmlns="http://www.w3.org/2000/svg" xmlns:xlink="http://www.w3.org/1999/xlink" x="0px" y="0px"
	 viewBox="0 0 192.9 192.9" style="enable-background:new 0 0 192.9 192.9;" xml:space="preserve">
<style type="text/css">
	.st0{fill:none;stroke:#FFFFFF;stroke-width:5;stroke-linecap:round;stroke-linejoin:round;}
	.st1{fill:#FFFFFF;}
</style>
<circle class="st0" cx="-124.5" cy="96.5" r="66.5"/>
<circle class="st0" cx="96.5" cy="96.5" r="66.5"/>
<circle class="st0" cx="323.5" cy="96.5" r="66.5"/>
<g id="Group_28" transform="translate(-737.491 -93.125)">
	<path id="Path_66_1_" class="st1" d="M653.8,169.6c-1-3.6-3.8-6.5-7.4-7.5c-6.6-1.8-32.8-1.8-32.8-1.8s-26.3,0-32.8,1.8
		c-3.6,1-6.5,3.8-7.4,7.5c-1.8,6.6-1.8,20.4-1.8,20.4s0,13.8,1.8,20.4c1,3.6,3.8,6.5,7.4,7.5c6.5,1.8,32.8,1.8,32.8,1.8
		s26.3,0,32.8-1.8c3.6-1,6.5-3.8,7.4-7.5c1.8-6.6,1.8-20.4,1.8-20.4S655.6,176.2,653.8,169.6z M605,202.5v-25l22,12.5L605,202.5z"/>
</g>
<path id="Path_69_1_" class="st1" d="M88.6,137.7h16V97.5h11.2l1.2-13.4h-12.4v-7.7c0-3.2,0.6-4.4,3.7-4.4h8.7v-14h-11.1
	c-11.9,0-17.3,5.3-17.3,15.3v10.7h-8.3v13.6h8.3V137.7z"/>
<path id="Path_71" class="st1" d="M324.6,65.3c9.6,0,10.8,0,14.6,0.2c2.3,0,4.6,0.4,6.7,1.2c3.1,1.2,5.6,3.7,6.9,6.9
	c0.8,2.1,1.2,4.4,1.2,6.7c0.2,3.8,0.2,5,0.2,14.6s0,10.8-0.2,14.6c0,2.3-0.4,4.6-1.2,6.7c-1.2,3.1-3.7,5.6-6.9,6.9
	c-2.1,0.8-4.4,1.2-6.7,1.2c-3.8,0.2-4.9,0.2-14.6,0.2s-10.8,0-14.6-0.2c-2.3,0-4.6-0.4-6.7-1.2c-3.1-1.2-5.6-3.7-6.9-6.9
	c-0.8-2.1-1.2-4.4-1.2-6.7c-0.2-3.8-0.2-4.9-0.2-14.6s0-10.8,0.2-14.6c0-2.3,0.4-4.6,1.2-6.7c1.2-3.1,3.7-5.6,6.9-6.9
	c2.1-0.8,4.4-1.2,6.7-1.2C313.8,65.3,315,65.3,324.6,65.3 M324.6,58.8c-9.8,0-11,0-14.9,0.2c-3,0.1-6,0.6-8.8,1.7
	c-4.8,1.9-8.7,5.7-10.6,10.6c-1,2.8-1.6,5.8-1.7,8.8c-0.2,3.9-0.2,5.1-0.2,14.9s0,11,0.2,14.9c0.1,3,0.6,6,1.7,8.8
	c1.9,4.8,5.7,8.7,10.6,10.6c2.8,1,5.8,1.6,8.8,1.7c3.9,0.2,5.1,0.2,14.9,0.2s11,0,14.9-0.2c3-0.1,6-0.6,8.8-1.7
	c4.8-1.9,8.7-5.7,10.6-10.6c1-2.8,1.6-5.8,1.7-8.8c0.2-3.9,0.2-5.1,0.2-14.9s0-11-0.2-14.9c-0.1-3-0.6-6-1.7-8.8
	c-1.9-4.8-5.7-8.7-10.6-10.6c-2.8-1.1-5.8-1.6-8.8-1.7C335.7,58.8,334.4,58.8,324.6,58.8"/>
<path id="Path_72" class="st1" d="M324.6,76.3c-10.2,0-18.5,8.3-18.5,18.5s8.3,18.5,18.5,18.5c10.2,0,18.5-8.3,18.5-18.5
	S334.9,76.3,324.6,76.3L324.6,76.3 M324.6,106.9c-6.6,0-12-5.4-12-12c0-6.6,5.4-12,12-12c6.6,0,12,5.4,12,12l0,0
	C336.7,101.5,331.3,106.9,324.6,106.9"/>
<path id="Path_73" class="st1" d="M348.2,75.6c0,2.4-1.9,4.3-4.3,4.3c-2.4,0-4.3-1.9-4.3-4.3c0-2.4,1.9-4.3,4.3-4.3
	C346.3,71.3,348.2,73.2,348.2,75.6"/>
</svg>
