<svg id="Layer_1" data-name="Layer 1" xmlns="http://www.w3.org/2000/svg" viewBox="0 0 192.94 192.94">
  <path d="M22.54,86.49A8.59,8.59,0,0,0,14,95.08v5a8.59,8.59,0,0,0,8.58,8.59H25.6V86.49Z" style="fill: none;stroke: #a5d7e2;stroke-linecap: round;stroke-linejoin: round;stroke-width: 5px"/>
  <rect x="71.01" y="86.49" width="52.4" height="22.12" style="fill: none;stroke: #a5d7e2;stroke-linecap: round;stroke-linejoin: round;stroke-width: 5px"/>
  <path d="M171.89,86.49h-3.06v22.13h3.06a8.59,8.59,0,0,0,8.58-8.59v-5A8.59,8.59,0,0,0,171.89,86.49Z" style="fill: none;stroke: #a5d7e2;stroke-linecap: round;stroke-linejoin: round;stroke-width: 5px"/>
  <path d="M139.23,51.56h-4.85a11,11,0,0,0-11,11v68.89a11,11,0,0,0,11,11h4.85a11,11,0,0,0,11-11V62.53A11,11,0,0,0,139.23,51.56Z" style="fill: none;stroke: #a5d7e2;stroke-linecap: round;stroke-linejoin: round;stroke-width: 5px"/>
  <path d="M162.28,73.68h-5.53a6.55,6.55,0,0,0-6.55,6.55v33.48a6.55,6.55,0,0,0,6.55,6.55h5.53a6.55,6.55,0,0,0,6.55-6.55V80.23A6.56,6.56,0,0,0,162.28,73.68Z" style="fill: none;stroke: #a5d7e2;stroke-linecap: round;stroke-linejoin: round;stroke-width: 5px"/>
  <path d="M60.05,51.56H55.2a11,11,0,0,0-11,11v68.89a11,11,0,0,0,11,11h4.85a11,11,0,0,0,11-11V62.53A11,11,0,0,0,60.05,51.56Z" style="fill: none;stroke: #a5d7e2;stroke-linecap: round;stroke-linejoin: round;stroke-width: 5px"/>
  <path d="M37.68,73.68H32.15a6.55,6.55,0,0,0-6.55,6.55v33.48a6.55,6.55,0,0,0,6.55,6.55h5.53a6.55,6.55,0,0,0,6.55-6.55V80.23A6.55,6.55,0,0,0,37.68,73.68Z" style="fill: none;stroke: #a5d7e2;stroke-linecap: round;stroke-linejoin: round;stroke-width: 5px"/>
</svg>
