<svg id="Layer_1" data-name="Layer 1" xmlns="http://www.w3.org/2000/svg" viewBox="0 0 192.94 192.94">
  <circle cx="96.47" cy="96.47" r="66.5" style="fill: none;stroke: #fff;stroke-linecap: round;stroke-linejoin: round;stroke-width: 5px"/>
  <path id="Path_71" data-name="Path 71" d="M97.63,65.27c9.63,0,10.78,0,14.58.22a20,20,0,0,1,6.71,1.24,11.92,11.92,0,0,1,6.85,6.85,20,20,0,0,1,1.25,6.7c.17,3.81.2,5,.2,14.59s0,10.78-.2,14.59a19.89,19.89,0,0,1-1.25,6.7,12,12,0,0,1-6.85,6.86,20.23,20.23,0,0,1-6.71,1.24c-3.8.17-4.94.21-14.58.21s-10.78,0-14.59-.21a20.12,20.12,0,0,1-6.7-1.24,12,12,0,0,1-6.85-6.86,19.89,19.89,0,0,1-1.25-6.7c-.17-3.8-.21-4.95-.21-14.59s0-10.78.21-14.59a20,20,0,0,1,1.25-6.7,11.92,11.92,0,0,1,6.85-6.85A19.88,19.88,0,0,1,83,65.49c3.81-.18,4.95-.22,14.59-.22m0-6.5c-9.81,0-11,0-14.88.22A26.55,26.55,0,0,0,74,60.67,18.46,18.46,0,0,0,63.42,71.23,26.44,26.44,0,0,0,61.75,80c-.18,3.85-.22,5.08-.22,14.88s0,11,.22,14.88a26.54,26.54,0,0,0,1.67,8.77A18.49,18.49,0,0,0,74,129.08a26.8,26.8,0,0,0,8.77,1.67c3.85.18,5.07.22,14.88.22s11,0,14.88-.22a26.69,26.69,0,0,0,8.76-1.67,18.46,18.46,0,0,0,10.56-10.56,26.55,26.55,0,0,0,1.68-8.77c.17-3.85.21-5.07.21-14.88s0-11-.21-14.88a26.45,26.45,0,0,0-1.68-8.76,18.43,18.43,0,0,0-10.56-10.56A26.45,26.45,0,0,0,112.51,59c-3.85-.18-5.08-.22-14.88-.22" style="fill: #fff"/>
  <path id="Path_72" data-name="Path 72" d="M97.63,76.34a18.54,18.54,0,1,0,18.54,18.53A18.54,18.54,0,0,0,97.63,76.34h0m0,30.57a12,12,0,1,1,12-12h0a12,12,0,0,1-12,12" style="fill: #fff"/>
  <path id="Path_73" data-name="Path 73" d="M121.24,75.6a4.33,4.33,0,1,1-4.33-4.33,4.33,4.33,0,0,1,4.33,4.33" style="fill: #fff"/>
</svg>
