<?xml version="1.0" encoding="utf-8"?>
<!-- Generator: Adobe Illustrator 24.3.0, SVG Export Plug-In . SVG Version: 6.00 Build 0)  -->
<svg version="1.1" id="Layer_1" xmlns="http://www.w3.org/2000/svg" xmlns:xlink="http://www.w3.org/1999/xlink" x="0px" y="0px"
	 viewBox="0 0 170 170" style="enable-background:new 0 0 170 170;" xml:space="preserve">
<style type="text/css">
	.st0{fill:url(#Ellipse_4_1_);}
	.st1{fill:#FFFFFF;}
</style>
<radialGradient id="Ellipse_4_1_" cx="86.3" cy="756.4" r="82.2" gradientTransform="matrix(1 0 0 1 0 -672)" gradientUnits="userSpaceOnUse">
	<stop  offset="5.600001e-02" style="stop-color:#8478B6"/>
	<stop  offset="0.605" style="stop-color:#6F78B5"/>
</radialGradient>
<circle id="Ellipse_4" class="st0" cx="86.3" cy="84.4" r="82.2"/>
<g>
	<path class="st1" d="M131.4,44.5h-21.8v-4.1c0-0.9-0.7-1.5-1.5-1.5c-0.9,0-1.5,0.7-1.5,1.5v4.1H66.1v-4.1c0-0.9-0.7-1.5-1.5-1.5
		c-0.9,0-1.5,0.7-1.5,1.5v4.1H41.2c-0.9,0-1.5,0.7-1.5,1.5v72.5c0,0.9,0.7,1.5,1.5,1.5h90.2c0.9,0,1.5-0.7,1.5-1.5V46
		C132.9,45.2,132.2,44.5,131.4,44.5z M63,47.6v4.1c0,0.9,0.7,1.5,1.5,1.5c0.9,0,1.5-0.7,1.5-1.5v-4.1h40.3v4.1
		c0,0.9,0.7,1.5,1.5,1.5c0.9,0,1.5-0.7,1.5-1.5v-4.1h20.2v8.9h-87v-8.9H63z M42.8,117V59.6h87v57.3L42.8,117L42.8,117z"/>
	<path class="st1" d="M100.7,82.8l-7.5-1c-0.1,0-0.3-0.1-0.3-0.3L89,73.8h-0.3c-0.3-0.3-0.6-0.5-0.9-0.7C86.9,72.7,86,72.6,85,73
		c-0.9,0.3-1.6,0.9-2.1,1.8l-3.4,6.8c-0.1,0.1-0.2,0.2-0.3,0.3l-7.6,1c-0.8,0.1-1.5,0.5-2.1,1c-0.7,0.7-1,1.5-1,2.5s0.3,1.8,1,2.5
		l5.4,5.3c0.1,0.1,0.1,0.3,0.1,0.3l-1.3,7.5c-0.1,0.8,0,1.5,0.3,2.2c0.9,1.8,3.1,2.4,4.8,1.5l6.7-3.5c0.1-0.1,0.3-0.1,0.4,0l6.7,3.5
		c0.5,0.3,1.1,0.4,1.6,0.4c0.2,0,0.3,0,0.6-0.1h0.1c1.9-0.3,3.2-2.2,2.8-4.1l-1.3-7.5c0-0.1,0-0.3,0.1-0.3l5.4-5.4
		c0.6-0.6,0.9-1.3,1-2c0.1-0.9-0.1-1.9-0.7-2.7S101.6,82.9,100.7,82.8z M100.5,86.7L95.1,92c-0.9,0.9-1.3,2-1,3.2l1.3,7.5
		c0.1,0.3-0.1,0.4-0.3,0.5l0,0c-0.1,0-0.2,0-0.3-0.1L88,99.5c-0.5-0.3-1.1-0.4-1.7-0.4s-1.1,0.1-1.7,0.4l-6.7,3.5
		c-0.2,0.1-0.4,0-0.6-0.2c-0.1-0.1-0.1-0.2-0.1-0.3l1.3-7.5c0.2-1.1-0.2-2.3-1-3.2L72,86.6c-0.2-0.2-0.2-0.4,0-0.6
		c0.1-0.1,0.1-0.1,0.3-0.1l7.5-1c1.2-0.2,2.2-0.9,2.8-2l3.4-6.8C86,76.1,86,76,86.1,76s0.2-0.1,0.3,0c0.1,0.1,0.1,0.1,0.2,0.2
		l0.5,0.9h0.1l2.9,5.9c0.5,1,1.5,1.8,2.8,2l7.5,1c0.1,0,0.3,0.1,0.3,0.2c0.1,0.1,0.1,0.2,0.1,0.3C100.5,86.5,100.5,86.6,100.5,86.7z
		"/>
</g>
</svg>
