<?xml version="1.0" encoding="utf-8"?>
<!-- Generator: Adobe Illustrator 24.3.0, SVG Export Plug-In . SVG Version: 6.00 Build 0)  -->
<svg version="1.1" id="Layer_1" xmlns="http://www.w3.org/2000/svg" xmlns:xlink="http://www.w3.org/1999/xlink" x="0px" y="0px"
	 viewBox="0 0 170 170" style="enable-background:new 0 0 170 170;" xml:space="preserve">
<style type="text/css">
	.st0{fill:#A6D7E2;}
	.st1{fill:#FFFFFF;}
</style>
<circle id="Ellipse_4" class="st0" cx="84.5" cy="84" r="82.2"/>
<path class="st1" d="M93.6,126.2c12.8-5.2,18.3-17,21-20.6c2.7-3.6,21.5-17.4,21.5-17.4c13.2-9,6.6-13.2,6.6-13.2
	c-3.7-3.3-10.7,2.3-14.7,6c-3.1,2.8-9.9,7-12.9,8.8c-0.3,0.2-0.7-0.2-0.5-0.5c1-1.8,2.3-5,0.2-8c-2.5-3.5-6.9-2.8-8.9-2.2
	c-0.3,0.1-0.6-0.2-0.4-0.5c0.9-1.7,0.9-3.7,0.8-4.9c-0.1-0.8-0.3-1.6-0.7-2.3c-2-3.7-6.3-3.4-8.1-3.1c-0.3,0-0.5-0.2-0.4-0.5
	c0.6-1.2,0.3-2.6-0.1-3.7c-0.8-1.8-2.3-3.2-4.2-3.9c-8.4-3.2-17.5,5-17.5,5s-11.4,9.7-12.7-1c-0.2-1.9-0.6-3.7-1-5.2
	c-1.5-5.6-4.8-10.6-9.4-14.1c-8.2-6.3-12.2-0.6-12.2-0.6s-1.4,1.6,2,4.7c3.9,3.6,6.7,8.3,7.5,13.5c0.4,2.7,0.6,5.7-0.1,8.5
	c-0.7,2.9-0.9,5.9-0.3,8.9c0.3,1.7,0.7,3.9,1.6,6c1.2,3,1.9,6.3,2.3,9.5c0.6,5.8,0.8,10.2-1.6,14.6c-0.6,1.2-1.4,2.2-2.3,3.2
	l-11,12.5c9.6,10.7,22.9,18,37.8,20C79,139.6,84.9,129.7,93.6,126.2z"/>
</svg>
