<?xml version="1.0" encoding="utf-8"?>
<!-- Generator: Adobe Illustrator 24.3.0, SVG Export Plug-In . SVG Version: 6.00 Build 0)  -->
<svg version="1.1" id="Layer_1" xmlns="http://www.w3.org/2000/svg" xmlns:xlink="http://www.w3.org/1999/xlink" x="0px" y="0px"
	 viewBox="0 0 135.6 170" style="enable-background:new 0 0 135.6 170;" xml:space="preserve">
<style type="text/css">
	.st0{fill:#FFFFFF;}
	.st1{fill:#81C9ED;}
	.st2{fill:url(#SVGID_1_);}
	.st3{fill:none;stroke:#82C9EC;stroke-miterlimit:10;}
	.st4{fill:#81C9ED;stroke:#82C9EC;stroke-miterlimit:10;}
</style>
<ellipse id="Ellipse_12" class="st0" cx="68" cy="94.7" rx="67.6" ry="64.8"/>
<g>
	<path class="st1" d="M77.7,21.3c0.3-0.5-0.6-1.7-2.2-2.8c-1.5-1.1-3-1.5-3.4-1.1c-0.3,0.5,0.6,1.7,2.2,2.8
		C75.9,21.3,77.4,21.7,77.7,21.3z"/>
	<path class="st1" d="M62.7,18c-0.5,0.7-0.2,1.6,0.5,2.2c0.8,0.5,1.8,0.4,2.2-0.2c0.5-0.7,0.2-1.6-0.5-2.2
		C64.1,17.2,63.1,17.3,62.7,18z"/>
	<g>
		<radialGradient id="SVGID_1_" cx="72.7301" cy="41.349" r="79.0073" gradientUnits="userSpaceOnUse">
			<stop  offset="5.600001e-02" style="stop-color:#8478B6"/>
			<stop  offset="0.605" style="stop-color:#6F78B5"/>
		</radialGradient>
		<path class="st2" d="M100.7,88.5c11.9-6,16.6-5.7,18.4-4.9c0.7,0.3,1.6,0.9,2.3,2.8c0.7,2,2.8,3,4.8,2.4c2-0.7,3-2.8,2.4-4.8
			c-1.2-3.6-3.5-6.1-6.6-7.4c-5.4-2.2-13.3-0.5-24.7,5.2c-4.4,2.2-8.1,2.7-11.3,1.5c-3.2-1.2-5.2-4-6.2-5.7
			c6.7-9.9,20.6-9.9,20.6-31.1c0-17.9-14.5-32.4-32.4-32.4c-17.9,0-32.4,14.5-32.4,32.4c0,20,14.4,21.9,20,32.2
			c-1.1,1.6-2.9,3.7-5.5,4.7c-3.1,1.2-6.9,0.7-11.3-1.5c-11.4-5.8-19.2-7.4-24.7-5.2c-3.1,1.3-5.3,3.7-6.6,7.4
			c-0.7,2,0.4,4.2,2.4,4.8c2,0.7,4.2-0.4,4.8-2.4c0.7-1.9,1.6-2.5,2.3-2.8c1.8-0.7,6.5-1,18.4,4.9c3.9,2,7.7,3,11.2,3
			c1.5,0,2.9-0.2,4.3-0.5c-1.7,1.4-3.5,2.5-5.5,2.9c-5.7,1.3-8.9,0.8-12.5,0.3c-3.1-0.5-6.5-1-11.4-0.3c-6.8,0.9-11.8,6.7-12.4,14
			c-0.6,7.7,4.1,14.1,11.8,16.3c0.4,0.1,0.7,0.1,1,0.1c1.7,0,3.2-1.1,3.7-2.8c0.6-2-0.6-4.1-2.6-4.7c-6.3-1.8-6.4-6.9-6.3-8.5
			c0.2-3,2.1-6.5,5.8-7c3.8-0.5,6.3-0.1,9.3,0.3c3.8,0.6,8.2,1.2,15.3-0.3c5.8-1.3,11-5.5,15.6-12.4c-0.3,4.4-1.2,8.7-3.3,11.6
			c-1.6,2.3-3.9,3.6-6.9,4c-11.8,1.5-19,3.9-21,11.6c-1.3,5.1,0.6,13.8,9.1,16.4c1.5,0.5,3.1,0.7,4.6,0.7c3.6,0,6.9-1.2,9.3-3.5
			c2.7-2.7,3.7-6.3,2.7-10.1c-0.5-2-2.6-3.2-4.7-2.7c-2,0.5-3.2,2.6-2.7,4.7c0.3,1.1,0.1,2-0.6,2.7c-1.1,1.1-3.6,1.8-6.4,1
			c-4.9-1.5-4-7.1-4-7.2c0.5-1.8,1.1-4.2,14.6-5.9c5.2-0.7,9.2-3.1,12.1-7.2c1-1.5,1.9-3.1,2.6-5c0.7,1.9,1.6,3.5,2.6,5
			c2.9,4.1,7,6.5,12.1,7.2c13.5,1.7,14.1,4.2,14.6,5.9c0,0.1,1,5.7-4,7.2c-2.8,0.9-5.3,0.1-6.4-1c-0.7-0.7-0.9-1.6-0.6-2.7
			c0.5-2-0.7-4.1-2.7-4.7c-2-0.5-4.1,0.7-4.7,2.7c-1,3.8,0,7.5,2.7,10.1c2.3,2.3,5.7,3.5,9.3,3.5c1.5,0,3.1-0.2,4.6-0.7
			c8.5-2.6,10.4-11.3,9.1-16.4c-1.5-5.8-5.4-9.6-21-11.6c-3-0.4-5.2-1.7-6.9-4c-2.1-3-3-7.3-3.3-11.6c4.6,7,9.9,11.2,15.6,12.4
			c7.1,1.6,11.4,0.9,15.3,0.3c2.9-0.4,5.5-0.8,9.3-0.3c3.7,0.5,5.6,4,5.8,7c0.1,1.5,0,6.7-6.3,8.5c-2,0.6-3.2,2.7-2.6,4.7
			c0.5,1.7,2,2.8,3.7,2.8c0.3,0,0.7,0,1-0.1c7.7-2.2,12.4-8.6,11.8-16.3c-0.5-7.3-5.6-13.1-12.4-14c-4.9-0.7-8.4-0.1-11.4,0.3
			c-3.6,0.5-6.8,1-12.5-0.3c-2-0.4-3.8-1.5-5.5-2.9c1.4,0.3,2.8,0.5,4.2,0.5C93,91.4,96.8,90.4,100.7,88.5z"/>
		<path class="st1" d="M73.6,23.4c0.3-0.5-0.6-1.7-2.2-2.8c-1.5-1.1-3-1.5-3.4-1.1c-0.3,0.5,0.6,1.7,2.2,2.8
			C71.7,23.4,73.2,23.9,73.6,23.4z"/>
		<path class="st1" d="M79.3,34.5c0.3-0.5-0.6-1.7-2.2-2.8c-1.5-1.1-3-1.5-3.4-1.1c-0.3,0.5,0.6,1.7,2.2,2.8
			C77.5,34.5,79,34.9,79.3,34.5z"/>
		<path class="st1" d="M81.4,24.5c-0.3,0.5-1.3,0.4-2.1-0.2c-0.8-0.6-1.2-1.4-0.9-1.9c0.3-0.5,1.3-0.4,2.1,0.2
			C81.3,23.2,81.7,24.1,81.4,24.5z"/>
		<path class="st1" d="M81.7,30.4c-0.2,0.3-1.7-0.3-3.2-1.3c-1.5-1.1-2.6-2.2-2.3-2.5c0.2-0.3,1.7,0.3,3.2,1.3
			C80.9,28.9,81.9,30,81.7,30.4z"/>
		<path class="st1" d="M88.1,30.5c-0.5,0.7-1.6,0.8-2.5,0.2c-0.9-0.6-1.2-1.7-0.7-2.4c0.5-0.7,1.6-0.8,2.5-0.2
			C88.3,28.7,88.6,29.8,88.1,30.5z"/>
		<path class="st1" d="M86.5,37.6c-0.4,0.6-1.8,0.4-3.1-0.5c-1.3-0.9-1.9-2.1-1.5-2.7c0.4-0.6,1.8-0.4,3.1,0.5
			C86.3,35.8,87,37,86.5,37.6z"/>
		<path class="st1" d="M73.1,37.6c-0.4,0.6-1.8,0.4-3.1-0.5c-1.3-0.9-1.9-2.1-1.5-2.7c0.4-0.6,1.8-0.4,3.1,0.5
			C72.8,35.8,73.5,37,73.1,37.6z"/>
		<path class="st1" d="M70,25c-0.5,0.7,0.2,2,1.6,2.9c1.3,0.9,2.8,1.2,3.3,0.5c0.5-0.7-0.2-2-1.6-2.9C71.9,24.6,70.5,24.3,70,25z"/>
		<path class="st1" d="M64.8,23.5c-0.2,0.3,0,0.9,0.6,1.3c0.5,0.4,1.2,0.4,1.4,0.1c0.2-0.3-0.1-0.9-0.6-1.3
			C65.6,23.2,65,23.2,64.8,23.5z"/>
		<path class="st1" d="M96.8,44.8c-0.3,0.4-1.3,0.1-2.4-0.6c-1-0.7-1.7-1.6-1.4-2c0.3-0.4,1.3-0.1,2.4,0.6
			C96.5,43.5,97.1,44.4,96.8,44.8z"/>
		<path class="st1" d="M63,24.4c-0.3,0.4-1.3,0.1-2.4-0.6c-1-0.7-1.7-1.6-1.4-2c0.3-0.4,1.3-0.1,2.4,0.6C62.7,23.1,63.3,24,63,24.4z
			"/>
		<path class="st1" d="M79.2,38.7c-0.3,0.4-1.3,0.1-2.4-0.6c-1-0.7-1.7-1.6-1.4-2c0.3-0.4,1.3-0.1,2.4,0.6
			C78.8,37.4,79.5,38.3,79.2,38.7z"/>
		<path class="st1" d="M92.5,35.5c-0.2,0.3-0.9,0.3-1.5-0.1c-0.6-0.4-0.9-1-0.6-1.4c0.2-0.3,0.9-0.3,1.5,0.1
			C92.5,34.6,92.8,35.2,92.5,35.5z"/>
		<path class="st1" d="M67.1,30.2c-0.3,0.4,0,1,0.6,1.5c0.6,0.4,1.3,0.5,1.6,0.1c0.3-0.4,0-1-0.6-1.5C68.1,29.9,67.4,29.8,67.1,30.2
			z"/>
		<path class="st1" d="M83.4,39.6c-0.3,0.4,0,1,0.6,1.5c0.6,0.4,1.3,0.5,1.6,0.1c0.3-0.4,0-1-0.6-1.5C84.4,39.3,83.7,39.3,83.4,39.6
			z"/>
		<path class="st1" d="M93.8,37.9c-0.3,0.4,0,1,0.6,1.5c0.6,0.4,1.3,0.5,1.6,0.1c0.3-0.4,0-1-0.6-1.5C94.8,37.5,94.1,37.5,93.8,37.9
			z"/>
		<path class="st1" d="M89.2,29.2c-0.3,0.4,0,1,0.6,1.5c0.6,0.4,1.3,0.5,1.6,0.1c0.3-0.4,0-1-0.6-1.5C90.2,28.8,89.5,28.8,89.2,29.2
			z"/>
		<path class="st1" d="M88.8,42.4c-0.3,0.4,0,1,0.6,1.5c0.6,0.4,1.3,0.5,1.6,0.1c0.3-0.4,0-1-0.6-1.5C89.8,42,89.1,42,88.8,42.4z"/>
		<path class="st1" d="M92.2,39.9c-0.5,0.7-1.7,0.7-2.7,0c-1-0.7-1.4-1.9-0.9-2.6c0.5-0.7,1.7-0.7,2.7,0
			C92.3,38,92.7,39.2,92.2,39.9z"/>
		<path class="st1" d="M86.7,25.2c-0.5,0.7-1.7,0.7-2.7,0c-1-0.7-1.4-1.9-0.9-2.6c0.5-0.7,1.7-0.7,2.7,0
			C86.8,23.4,87.2,24.5,86.7,25.2z"/>
		<g>
			<path id="Path_81_1_" class="st3" d="M60.7,64.5c-1.3,2.8-1.4,7.4-0.3,10.4c1.1,3.2,3,3.4,4.4,0.8c1.3-2.8,1.4-7.4,0.3-10.4
				C63.9,62.2,62,61.7,60.7,64.5L60.7,64.5z"/>
			<path id="Path_82_1_" class="st4" d="M61.6,68.1c-0.7,1.9-0.8,5.2-0.2,7.4c0.6,2.3,1.8,2.6,2.5,0.6c0.7-1.9,0.8-5.2,0.2-7.4l0,0
				C63.4,66.4,62.3,66.1,61.6,68.1z"/>
		</g>
		<g>
			<path id="Path_81_3_" class="st3" d="M70.1,64.5c-1.3,2.8-1.4,7.4-0.3,10.4c1.1,3.2,3,3.4,4.4,0.8c1.3-2.8,1.4-7.4,0.3-10.4
				C73.3,62.2,71.4,61.7,70.1,64.5L70.1,64.5z"/>
			<path id="Path_82_2_" class="st4" d="M71,68.1c-0.7,1.9-0.8,5.2-0.2,7.4c0.6,2.3,1.8,2.6,2.5,0.6c0.7-1.9,0.8-5.2,0.2-7.4l0,0
				C72.8,66.4,71.7,66.1,71,68.1z"/>
		</g>
	</g>
</g>
</svg>
