<?xml version="1.0" encoding="utf-8"?>
<!-- Generator: Adobe Illustrator 24.3.0, SVG Export Plug-In . SVG Version: 6.00 Build 0)  -->
<svg version="1.1" id="Layer_1" xmlns="http://www.w3.org/2000/svg" xmlns:xlink="http://www.w3.org/1999/xlink" x="0px" y="0px"
	 viewBox="0 0 170 170" style="enable-background:new 0 0 170 170;" xml:space="preserve">
<style type="text/css">
	.st0{fill:url(#Ellipse_4_1_);}
	.st1{fill:#81C9ED;stroke:#82C9EC;stroke-miterlimit:10;}
	.st2{fill:#FFFFFF;}
</style>
<radialGradient id="Ellipse_4_1_" cx="85.5271" cy="44.1419" r="69.8548" gradientUnits="userSpaceOnUse">
	<stop  offset="5.600001e-02" style="stop-color:#8478B6"/>
	<stop  offset="0.605" style="stop-color:#6F78B5"/>
</radialGradient>
<circle id="Ellipse_4" class="st0" cx="84.5" cy="84" r="82.2"/>
<path class="st1" d="M84.5,146.5c19.9,0,37.6-9.3,49.1-23.8c-3.7-15.2-14.6-34-28.4-34c-3.9,7.4-11.7,12.4-20.7,12.4
	s-16.7-5-20.7-12.4c-14.4,0-24.7,18.8-28.4,34C46.9,137.2,64.6,146.5,84.5,146.5z"/>
<path class="st2" d="M84.5,46.1c-16,0-18.6,16.4-18.6,27.9c0,3.5,0.8,6.9,2.2,9.8c3.1,6.6,9.3,11.1,16.5,11.1
	c7.1,0,13.3-4.5,16.5-11.1c1.4-2.9,2.2-6.3,2.2-9.8C103.1,62.5,100.5,46.1,84.5,46.1z"/>
</svg>
