<?xml version="1.0" encoding="utf-8"?>
<!-- Generator: Adobe Illustrator 24.1.3, SVG Export Plug-In . SVG Version: 6.00 Build 0)  -->
<svg version="1.1" id="Layer_1" xmlns="http://www.w3.org/2000/svg" xmlns:xlink="http://www.w3.org/1999/xlink" x="0px" y="0px"
	 viewBox="0 0 170 170" style="enable-background:new 0 0 170 170;" xml:space="preserve">
<style type="text/css">
	.st0{fill:#A6D7E2;}
	.st1{fill:#FFFFFF;}
</style>
<circle id="Ellipse_4" class="st0" cx="84.5" cy="84" r="82.2"/>
<path id="Path_53" class="st1" d="M29.6,70.4l0,0.1c-3.6,0.1-6.3,3.1-6.2,6.7c0.1,3.5,3,6.2,6.5,6.2c0.1,0,0.3,0,0.4,0l0,0.1
	c-3.8,0.9-6.2,4.8-5.3,8.7c0.9,3.8,4.8,6.2,8.7,5.3c0.1,0,0.2-0.1,0.3-0.1c0,0.1,0.1,0.1,0.1,0.2c-3.8,2.3-5,7.2-2.7,11
	c2.3,3.8,7.2,5,11,2.7c0.1-0.1,0.2-0.1,0.3-0.2c0,0,0.1,0.1,0.1,0.1c-3.4,3.6-3.2,9.2,0.4,12.5c3.6,3.4,9.2,3.2,12.5-0.4
	c0.3-0.4,0.6-0.7,0.9-1.1c0,0,0.1,0,0.1,0.1c-2.4,4.9-0.5,10.8,4.4,13.2c4.9,2.4,10.8,0.5,13.2-4.4c0.3-0.7,0.6-1.4,0.8-2.1l0.1,0
	c0,0.3,0,0.6,0,0.9c0,6,4.9,10.9,10.9,10.9c6,0,10.9-4.9,10.9-10.9c0-0.3,0-0.6,0-0.9l0.1,0c1.3,5.3,6.6,8.5,11.9,7.3
	c5.3-1.3,8.5-6.6,7.3-11.9c-0.2-0.7-0.4-1.4-0.8-2.1c0,0,0.1,0,0.1-0.1c2.7,4.1,8.2,5.1,12.3,2.4c4.1-2.7,5.1-8.2,2.4-12.3
	c-0.3-0.4-0.6-0.8-0.9-1.1c0,0,0.1-0.1,0.1-0.1c3.6,2.5,8.6,1.5,11.1-2.1c2.5-3.6,1.5-8.6-2.1-11.1c-0.1-0.1-0.2-0.1-0.3-0.2
	c0-0.1,0.1-0.1,0.1-0.2c3.8,1.1,7.8-1.1,8.9-4.9c1.1-3.8-1.1-7.8-4.9-8.9c-0.1,0-0.2-0.1-0.3-0.1l0-0.1c0.1,0,0.3,0,0.4,0
	c3.6,0,6.5-2.9,6.5-6.5c0-3.5-2.7-6.3-6.2-6.5l0-0.1c3.2-0.6,5.2-3.7,4.6-6.8c-0.5-2.7-2.9-4.7-5.7-4.7c-0.2,0-0.4,0-0.5,0
	c-0.1,0-0.3,0-0.4,0c-14.6,0-26.5-2.5-37.7-10.2c0-0.2,0.1-0.5,0.1-0.7c0-3.2-2.6-5.8-5.8-5.8c0,0,0,0,0,0c-0.1,0-0.2,0-0.2,0
	c-1.2-5.9-7-9.7-13-8.5c-4.2,0.9-7.6,4.2-8.5,8.5c-0.1,0-0.2,0-0.2,0c-3.2,0-5.8,2.6-5.8,5.8c0,0,0,0,0,0c0,0.3,0,0.5,0.1,0.7
	c-11.1,7.8-23.1,10.2-37.7,10.2c-0.2,0-0.3,0-0.4,0c-0.2,0-0.4,0-0.5,0c-3.2,0-5.8,2.6-5.8,5.8C24.9,67.5,26.9,69.9,29.6,70.4
	L29.6,70.4z"/>
</svg>
