<?xml version="1.0" encoding="utf-8"?>
<!-- Generator: Adobe Illustrator 24.3.0, SVG Export Plug-In . SVG Version: 6.00 Build 0)  -->
<svg version="1.1" id="Layer_1" xmlns="http://www.w3.org/2000/svg" xmlns:xlink="http://www.w3.org/1999/xlink" x="0px" y="0px"
	 viewBox="0 0 170 170" style="enable-background:new 0 0 170 170;" xml:space="preserve">
<style type="text/css">
	.st0{fill:url(#Ellipse_4_1_);}
	.st1{fill:#FFFFFF;}
</style>
<radialGradient id="Ellipse_4_1_" cx="107.8022" cy="24.4522" r="217.008" gradientUnits="userSpaceOnUse">
	<stop  offset="5.600001e-02" style="stop-color:#8279B6"/>
	<stop  offset="0.605" style="stop-color:#6F79B4"/>
</radialGradient>
<circle id="Ellipse_4" class="st0" cx="85" cy="85" r="82.2"/>
<path class="st1" d="M72.8,121.2c13.2,4.2,24.9-1.4,29.3-2.4c4.4-1,6.7-1.2,6.7-1.2s4.7-0.1,5.9-3.9c1.1-3.5,1.3-6.2-2.1-6.7
	c-0.4,0-0.4-0.6-0.1-0.7c1.9-0.7,5-2.4,5.3-6c0.3-4.3-3.5-6.6-5.4-7.4c-0.3-0.1-0.3-0.5,0-0.6c1.8-0.7,3.1-2.3,3.7-3.3
	c0.4-0.7,0.8-1.4,0.9-2.2c0.8-4.1-2.7-6.6-4.2-7.6c-0.2-0.2-0.3-0.5,0-0.6c1.2-0.5,1.9-1.8,2.3-2.9c0.5-1.9,0.3-3.9-0.7-5.7
	c-4.4-7.8-16.7-7.3-16.7-7.3s-15,0.2-9.1-8.9c1.1-1.6,1.9-3.2,2.6-4.6c2.4-5.3,3.1-11.2,1.8-16.9c-2.3-10.1-9-8.3-9-8.3
	s-2.1,0.3-1.5,4.9c0.7,5.3-0.2,10.7-2.9,15.2c-1.4,2.3-3.2,4.8-5.5,6.5c-2.4,1.8-4.5,4-5.9,6.7c-0.9,1.5-2,3.4-2.6,5.6
	c-1,3.1-2.6,6.1-4.3,8.8c-3.2,4.8-5.9,8.4-10.6,10.2c-1.2,0.5-2.5,0.8-3.8,1l-16.4,2.6c0.5,14.4,6.1,28.5,16.3,39.5
	C53.1,122.2,63.9,118.4,72.8,121.2z"/>
</svg>
