<?xml version="1.0" encoding="utf-8"?>
<!-- Generator: Adobe Illustrator 24.3.0, SVG Export Plug-In . SVG Version: 6.00 Build 0)  -->
<svg version="1.1" id="Layer_1" xmlns="http://www.w3.org/2000/svg" xmlns:xlink="http://www.w3.org/1999/xlink" x="0px" y="0px"
	 viewBox="0 0 170 170" style="enable-background:new 0 0 170 170;" xml:space="preserve">
<style type="text/css">
	.st0{fill:url(#Ellipse_4_1_);}
	.st1{fill:#FFFFFF;}
</style>
<radialGradient id="Ellipse_4_1_" cx="84.5" cy="84" r="82.2" gradientUnits="userSpaceOnUse">
	<stop  offset="5.600001e-02" style="stop-color:#8478B6"/>
	<stop  offset="0.605" style="stop-color:#6F78B5"/>
</radialGradient>
<circle id="Ellipse_4" class="st0" cx="84.5" cy="84" r="82.2"/>
<path class="st1" d="M139.2,74.5L139.2,74.5h-0.4v-2.8c0-3.7-3-6.6-6.6-6.6l0,0h-4c-1,0-2.1,0.2-2.9,0.7v-7c0-5.4-4.5-9.9-9.9-9.9
	h-3.6c-5.4,0-9.9,4.5-9.9,9.9v15.7H67.1V58.8c0-5.4-4.5-9.9-9.9-9.9h-3.5c-5.4,0-9.9,4.5-9.9,9.9v7c-0.9-0.4-1.9-0.7-2.9-0.7h-4
	c-3.7,0-6.6,3-6.6,6.7v2.8h-0.4l0,0c-4.5,0-8.1,3.7-8.1,8.1v3.7c0,4.5,3.7,8.1,8.1,8.1h0.4v1.8c0,3.7,3,6.6,6.6,6.6h4
	c1,0,2.1-0.2,2.9-0.7v7c0,5.4,4.5,9.9,9.9,9.9h3.5c5.4,0,9.9-4.5,9.9-9.9V94.3h34.7v14.9c0,5.4,4.5,9.9,9.9,9.9h3.6
	c5.4,0,9.9-4.5,9.9-9.9v-7c0.9,0.4,1.9,0.7,2.9,0.7h4c3.7,0,6.6-3,6.6-6.6v-1.9h0.4c4.5,0,8.1-3.7,8.1-8.1v-3.7
	C147.3,78.1,143.7,74.5,139.2,74.5z M29.8,90.8c-2.5,0-4.5-2-4.5-4.5v-3.7c0-2.4,2-4.5,4.4-4.5h0.4v12.6H29.8z M40.8,99.3h-4
	c-1.6,0-2.9-1.3-2.9-2.9v-3.7V76.4v-4.6c0-1.6,1.3-3,2.9-3h4c1.5,0,2.9,1.2,2.9,2.8v25C43.6,98.1,42.4,99.3,40.8,99.3z M57.2,115.6
	h-3.5c-3.4,0-6.2-2.8-6.2-6.2V96.8c0-0.1,0-0.3,0-0.4V71.8c0-0.1,0-0.3,0-0.4V58.9c0-3.4,2.8-6.2,6.2-6.2h3.5c3.4,0,6.2,2.8,6.2,6.2
	v17.3c0,0.1,0,0.2,0,0.3v16.2c0,0.1,0,0.2,0,0.3v16.4C63.4,112.7,60.6,115.6,57.2,115.6z M67.1,90.7V78.2h34.7v12.5H67.1z
	 M115.3,115.6h-3.6c-3.4,0-6.2-2.8-6.2-6.2V92.9c0-0.1,0-0.1,0-0.2V76.4c0-0.1,0-0.1,0-0.2V58.9c0-3.4,2.8-6.2,6.2-6.2h3.6
	c3.4,0,6.2,2.8,6.2,6.2v12.5c0,0.1,0,0.3,0,0.4v24.6c0,0.1,0,0.3,0,0.4v12.5C121.5,112.7,118.7,115.6,115.3,115.6z M135.1,96.3
	c0,1.6-1.3,2.9-2.9,2.9h-4c-1.5,0-2.9-1.2-2.9-2.8V71.5c0.1-1.5,1.4-2.8,2.9-2.8h4c1.6,0,2.9,1.3,3,3v4.6v16.2L135.1,96.3
	L135.1,96.3z M143.7,86.3c0,2.5-2,4.5-4.5,4.5h-0.4V78.2h0.4c2.4,0,4.5,2,4.5,4.4V86.3z"/>
</svg>
