<?xml version="1.0" encoding="utf-8"?>
<!-- Generator: Adobe Illustrator 24.3.0, SVG Export Plug-In . SVG Version: 6.00 Build 0)  -->
<svg version="1.1" id="Layer_1" xmlns="http://www.w3.org/2000/svg" xmlns:xlink="http://www.w3.org/1999/xlink" x="0px" y="0px"
	 viewBox="0 0 170 170" style="enable-background:new 0 0 170 170;" xml:space="preserve">
<style type="text/css">
	.st0{fill:#95CFDC;stroke:#95CFDC;stroke-width:10;stroke-linecap:round;stroke-linejoin:round;}
	.st1{fill:none;stroke:#95CFDC;stroke-width:10;stroke-linecap:round;stroke-linejoin:round;}
</style>
<g id="Group_61" transform="translate(-895.174 -91.485)">
	<path id="Path_113" class="st0" d="M1033.7,199.6c-55.4,0-47-47-35.5-55.9c0.3-0.2,0.4-0.7,0.2-1c-0.1-0.2-0.4-0.3-0.6-0.3
		c-46.8,1.9-59.3,35.9-94.3,50.6c7.7,35.3,39.2,61.7,76.8,61.7c35.3,0,66.3-23.5,75.8-57.5C1048.7,198.9,1041.2,199.7,1033.7,199.6z
		"/>
	<path id="Path_114" class="st1" d="M998.2,143.8c-11.5,8.8-19.9,55.9,35.5,55.9c7.5,0.1,15-0.8,22.3-2.4c1.9-6.9,2.9-14,2.9-21.1
		c0-43.4-35.2-78.6-78.6-78.6c-43.4,0-78.6,35.2-78.6,78.6c0,5.7,0.6,11.4,1.8,16.9c35-14.7,47.5-48.7,94.3-50.6
		c0.4,0,0.8,0.3,0.8,0.7C998.5,143.4,998.4,143.6,998.2,143.8z"/>
</g>
</svg>
