<?xml version="1.0" encoding="utf-8"?>
<!-- Generator: Adobe Illustrator 24.2.3, SVG Export Plug-In . SVG Version: 6.00 Build 0)  -->
<svg version="1.1" id="Layer_1" xmlns="http://www.w3.org/2000/svg" xmlns:xlink="http://www.w3.org/1999/xlink" x="0px" y="0px"
	 viewBox="0 0 595.3 841.9" style="enable-background:new 0 0 595.3 841.9;" xml:space="preserve">
<style type="text/css">
	.st0{fill:#FFFFFF;}
</style>
<path class="st0" d="M40.7,43L18.9,21.2c-0.3-0.3-0.3-0.8,0-1.1c0.3-0.3,0.8-0.3,1.1,0l21.8,21.8c0.3,0.3,0.3,0.8,0,1.1
	C41.5,43.3,41,43.3,40.7,43z"/>
<path class="st0" d="M18.9,41.9l21.8-21.8c0.3-0.3,0.8-0.3,1.1,0c0.3,0.3,0.3,0.8,0,1.1L20,43c-0.3,0.3-0.8,0.3-1.1,0
	C18.6,42.7,18.6,42.2,18.9,41.9z"/>
</svg>
