<?xml version="1.0" encoding="utf-8"?>
<!-- Generator: Adobe Illustrator 24.2.0, SVG Export Plug-In . SVG Version: 6.00 Build 0)  -->
<svg version="1.1" id="Layer_1" xmlns="http://www.w3.org/2000/svg" xmlns:xlink="http://www.w3.org/1999/xlink" x="0px" y="0px"
	 viewBox="0 0 135.6 170" style="enable-background:new 0 0 135.6 170;" xml:space="preserve">
<style type="text/css">
	.st0{fill:#FFFFFF;}
	.st1{fill:url(#Path_79_1_);}
	.st2{fill:#81C9ED;}
	.st3{fill:none;stroke:#B3DDE6;stroke-miterlimit:10;}
	.st4{fill:#B3DDE6;}
</style>
<ellipse id="Ellipse_12" class="st0" cx="68" cy="65.7" rx="67.6" ry="64.8"/>
<g id="Group_30" transform="translate(67.383 63.997)">
	
		<linearGradient id="Path_79_1_" gradientUnits="userSpaceOnUse" x1="-66.8621" y1="105.389" x2="-66.7121" y2="105.3611" gradientTransform="matrix(255.8656 0 0 -546.627 17084.1055 57629.3281)">
		<stop  offset="5.600001e-02" style="stop-color:#8478B6"/>
		<stop  offset="0.605" style="stop-color:#6F78B5"/>
	</linearGradient>
	<path id="Path_79" class="st1" d="M-32.2-19.2c4.9,1.1,10-0.1,13.8-3.3c3.7-3.2,5.6-7.9,5-12.7c-0.1-0.9-0.2-2.1,0.6-2.6
		c0.8-0.5,1.9,0.1,2.5,0.9c0.6,0.8,0.9,1.7,1.7,2.3c1.8,1.3,4.3-0.5,5.7-2.2s3.1-3.8,5.4-3.4c1.5,0.3,2.4,1.7,3.3,2.9
		s2.4,2.3,3.8,1.9c1.4-0.4,2.4-2.2,3.8-1.8c1.7,0.5,0.8,3.3,2,4.6c0.8,0.8,2.1,0.7,3.2,0.4c1.1-0.2,2.4-0.5,3.3,0.1
		c0.9,0.6,0.7,2.5-0.5,2.3c-0.3,2.2,1.1,4.4,3.4,5.1c1.1,0.3,2.2,0.3,3.3,0.6c1.1,0.3,2,1.4,1.7,2.4c-0.3,1-2.3,1-2.2-0.1l-0.3,10.3
		c0,0.6,0,1.2-0.1,1.8L27-0.3c0.9,0.6,1.1,1.8,0.5,2.6c-0.6,0.9-1.8,1.1-2.7,0.5c-0.2-0.1-0.4-0.3-0.5-0.5c-1.9,2-2.6,4.9-1.8,7.5
		L38,6.7c0.5,2.5,1.1,5.1,0.8,7.7c-0.3,2.6-1.6,5.2-4,6.5c-2.3,1.2-5.3,1.2-7,3c-2.7,2.9-0.2,8-2.6,11.1c-3,4-10.7,1.3-13.8,5.2
		c-0.9-1.9-0.6-4.2-1-6.3s-2.5-4.3-4.6-3.5c-2.3,0.8-2,4-1.3,6.2c1.3-0.5,2.4,1.1,2.3,2.4c-0.2,1.3-1.1,2.4-1.4,3.7s0.4,3,1.7,2.9
		c1-0.6,2.5-0.1,2.9,0.9s-0.6,2.3-1.8,2.4c0.8,1.9,1.5,3.8,3,5.5c0.7-0.3,1.4-0.5,2.2-0.5c0.2,0,0.4,0,0.5,0.1
		c0.2,0.1,0.3,0.2,0.4,0.4c0.6,1,0.4,2.3-0.4,3.2c0.6,1.5,1.6,2.8,3.1,3.7c0.5-0.3,1-0.6,1.6-0.7c0.6-0.1,1.2,0.2,1.5,0.6
		c0.3,0.7,0.2,1.4,0,2.1c-0.3,0.5-0.9,0.7-1.4,0.8c0.6,1.7,1.8,3.2,3.4,4.1c0.5-0.4,1.2-0.9,1.9-0.9c0.9,0,1.7,0.7,1.7,1.6
		c0,0.9-0.7,1.6-1.6,1.7c-0.1,0-0.2,0-0.2,0c0.5,0.1,2,5.5,2.2,6.1c0.7,1.8,1.4,3.6,2,5.4c1.3,3.9,1.2,8.1-0.2,11.9
		c-3.7,10.1-16.4,15.4-26.1,9.4C-4,99.9-6.1,92.6-2.9,86.7c3-5.6,11.6-9.7,15.9-3c1.4,2.2,1.3,5.1,0.3,7.6c-0.6,1.3-1.5,2.6-2.8,3.2
		S7.4,95,6.4,93.9c0.9-0.2,1.6-0.8,2-1.5c0.4-0.7,0.6-1.5,0.6-2.3c0.2-1.7,0.1-3.6-1.3-4.6c-1.4-1.1-3.6-0.6-4.9,0.7
		c-1.6,1.6-1.7,4-1.7,6c0.1,5.1,4.5,9.1,9.8,9c0.4,0,0.8,0,1.2-0.1c5.8-0.8,8.8-6.5,9.6-11.6c0.8-5.3-0.8-12-4.1-16.4
		c-3.7-4.8-8.4-8.8-13.1-12.5c-8.8-6.9-18.6-13.7-24.5-23.3c-3.4-5.5-5.3-12.2-4-18.5c1.2-6.3,5.4-11.7,10.5-15.8
		c4.1-3.3,8.8-5.9,13.6-8.3C3.7-7.2,8.4-9.6,9-14c0.4-2.9-2.3-6-5.2-5.4c-2.7,0.6-3.9,3.8-6.5,4.9c-2.9,1.2-6.1-0.7-9.3-1
		c-2.8-0.3-5.6,0.8-8.3,1.7s-5.6,1.7-8.3,0.9C-31.3-13.7-33.5-16.8-32.2-19.2z"/>
	<path id="Path_80" class="st2" d="M4.4-24.5C6-24,7.6-23.4,9.2-22.7c1.6,0.7,2.9,1.9,3.9,3.3c1.8,3,1.6,6.7,0.4,9.8
		c-1.3,3.2-3.6,5.9-6.2,8c-2.6,2.2-5.5,4-8.3,5.9c-2.8,1.9-5.4,3.8-7.6,6.2c-1.1,1.2-2,2.5-2.7,3.9c-0.7,1.4-1.3,2.9-1.6,4.4
		c-1.4,6.1-0.3,12.7,2.7,18.4c2.9,5.7,7.5,10.5,12.4,15l7.4,6.8c2.5,2.3,4.8,4.7,7,7.3c1.1,1.3,2.1,2.7,3,4c0.9,1.4,1.8,2.9,2.5,4.4
		c1.5,3,2.5,6.2,2.9,9.6c0.2,1.7,0.2,3.3,0.1,5c-0.1,1.7-0.4,3.3-0.8,4.9c-0.4,1.6-1,3.2-1.8,4.6c-0.8,1.5-1.8,2.8-2.9,4.1
		c2-2.6,3.5-5.6,4.1-8.8c0.4-1.6,0.5-3.2,0.6-4.8c0-1.6-0.1-3.2-0.3-4.8c-0.5-3.2-1.5-6.3-3.1-9.1c-0.7-1.5-1.6-2.8-2.5-4.2
		c-1-1.3-1.9-2.6-3.1-3.8c-4.3-4.9-9.5-9.2-14.5-13.7c-5-4.5-9.8-9.5-12.9-15.6c-0.8-1.5-1.4-3.1-2-4.7c-0.5-1.6-0.9-3.3-1.2-4.9
		c-0.5-3.4-0.4-6.8,0.4-10.1c0.4-1.7,1-3.3,1.9-4.8c0.8-1.5,1.8-2.9,3-4.2C-7.8,6.8-4.9,4.9-2,3.1c2.9-1.8,5.8-3.5,8.3-5.6
		c2.6-2,4.8-4.5,6.1-7.4c0.7-1.4,1-3,1.1-4.6c0.1-1.6-0.3-3.2-1-4.6c-0.8-1.4-2.1-2.5-3.5-3.3C7.5-23.2,6-23.9,4.4-24.5z"/>
	<path id="Path_81" class="st3" d="M-8.7-28.6c-1.5,1.3-1.7,3.5-0.4,4.9c1.3,1.5,3.6,1.6,5.2,0.4c1.5-1.3,1.7-3.5,0.4-4.9
		C-4.9-29.7-7.2-29.9-8.7-28.6C-8.7-28.6-8.7-28.6-8.7-28.6z"/>
	<path id="Path_82" class="st4" d="M-7.1-28.6C-7.8-28-7.9-27-7.3-26.3c0.6,0.7,1.7,0.8,2.4,0.2c0.7-0.6,0.8-1.6,0.2-2.3
		c0,0,0,0,0,0C-5.4-29.1-6.4-29.2-7.1-28.6z"/>
	<path id="Path_83" class="st2" d="M17,10.4c2.2,1.7,5.4,1.6,8.3,1.4l4.7-0.3c1.1-0.1,2.2-0.2,3.3,0.1s2,1,2.3,2.1
		c0.3,1.1-0.4,2.2-1.3,3c-1.8,1.6-4.3,2.4-6.1,4.1c-1.8,1.7-2.4,4.3-3.1,6.6s-1.7,4.8-3.8,6.1C18.8,35,15,34.6,13.4,37
		c-0.2-4.7-3.6-9.2-8.1-10.9c0.2-3.3,2.4-6.2,4.7-8.5S15.2,13.2,17,10.4z"/>
</g>
</svg>
