<?xml version="1.0" encoding="utf-8"?>
<!-- Generator: Adobe Illustrator 24.1.3, SVG Export Plug-In . SVG Version: 6.00 Build 0)  -->
<svg version="1.1" id="Layer_1" xmlns="http://www.w3.org/2000/svg" xmlns:xlink="http://www.w3.org/1999/xlink" x="0px" y="0px"
	 viewBox="0 0 170 170" style="enable-background:new 0 0 170 170;" xml:space="preserve">
<style type="text/css">
	.st0{fill:url(#SVGID_1_);}
	.st1{fill:#81C9ED;}
	.st2{fill:none;stroke:#B3DDE6;stroke-miterlimit:10;}
	.st3{fill:#B3DDE6;}
</style>
<g>
	<linearGradient id="SVGID_1_" gradientUnits="userSpaceOnUse" x1="62.8333" y1="73.8161" x2="94.2395" y2="86.3029">
		<stop  offset="5.576006e-02" style="stop-color:#8478B6"/>
		<stop  offset="0.6047" style="stop-color:#6F78B5"/>
	</linearGradient>
	<path class="st0" d="M55.9,39.2c3.9,0.9,8.2-0.1,11.2-2.8c3-2.7,4.6-6.8,4.1-10.8c-0.1-0.8-0.2-1.8,0.5-2.2c0.7-0.4,1.6,0.1,2,0.8
		c0.5,0.7,0.8,1.5,1.4,1.9c1.5,1.1,3.5-0.4,4.6-1.9c1.1-1.5,2.6-3.3,4.4-2.9c1.2,0.3,2,1.5,2.7,2.5c0.8,1,1.9,2,3.1,1.6
		c1.1-0.4,1.9-1.9,3.1-1.5c1.4,0.4,0.6,2.8,1.7,3.9c0.6,0.7,1.7,0.6,2.6,0.4c0.9-0.2,1.9-0.4,2.7,0.1c0.8,0.5,0.5,2.1-0.4,2
		c-0.3,1.8,1,3.8,2.8,4.3c0.9,0.3,1.8,0.2,2.7,0.5c0.9,0.3,1.7,1.2,1.4,2c-0.2,0.9-1.9,0.8-1.8-0.1c-0.1,2.9-0.2,5.8-0.2,8.8
		c0,0.5,0,1,0,1.5c-0.1,2.7-0.1,5.3-0.2,8c0.8,0.5,0.9,1.8,0.2,2.5c-0.7,0.7-1.9,0.5-2.5-0.2c-1.6,1.7-2.2,4.2-1.5,6.4
		c4.2-0.9,8.5-1.8,12.7-2.7c0.4,2.2,0.9,4.4,0.7,6.6c-0.2,2.2-1.3,4.4-3.2,5.5c-1.8,1-4.3,1-5.7,2.6c-2.2,2.5-0.2,6.8-2.1,9.5
		c-2.4,3.4-8.7,1.1-11.3,4.4c-0.8-1.7-0.5-3.6-0.8-5.4c-0.4-1.8-2-3.6-3.7-3c-1.9,0.7-1.6,3.4-1,5.3c1-0.4,2,0.9,1.9,2
		c-0.1,1.1-0.9,2-1.1,3.1c-0.3,1.1,0.3,2.5,1.4,2.5c0.8-0.6,2.1-0.1,2.4,0.8c0.3,0.9-0.5,2-1.5,2c0.7,1.7,1.2,3.3,2.4,4.7
		c0.6-0.2,1.2-0.4,1.8-0.4c0.1,0,0.3,0,0.4,0.1c0.1,0.1,0.2,0.2,0.3,0.3c0.5,0.9,0.4,2-0.3,2.8c0.5,1.3,1.3,2.4,2.5,3.1
		c0.4-0.3,0.8-0.5,1.3-0.6c0.5-0.1,1,0.1,1.2,0.6c0.2,0.3,0.2,0.6,0.1,0.9c0,0.3,0,0.6-0.2,0.9c-0.2,0.4-0.7,0.6-1.1,0.7
		c0.5,1.4,1.5,2.7,2.8,3.5c0.4-0.4,1-0.8,1.6-0.8c0.8,0,1.5,0.7,1.4,1.4c0,0.8-0.8,1.4-1.5,1.3c0.4,0,1.6,4.7,1.8,5.2
		c0.5,1.5,1.1,3,1.6,4.6c1,3.3,1,6.9-0.1,10.2c-3,8.7-13.4,13.1-21.3,8c-1.9-1.2-3.4-2.9-4.2-5c-1.3-3-1.1-6.5,0.3-9.4
		c2.5-4.7,9.5-8.3,13-2.6c1.2,1.9,1.1,4.4,0.2,6.4c-0.5,1.1-1.2,2.2-2.3,2.8c-1.1,0.6-2.6,0.5-3.3-0.5c0.7-0.1,1.3-0.7,1.6-1.3
		c0.3-0.6,0.4-1.3,0.5-2c0.2-1.4,0.1-3.1-1.1-4c-1.2-0.9-3-0.5-4,0.6c-1.3,1.4-1.4,3.4-1.4,5.2c0.1,1.9,0.8,3.8,2.2,5.2
		c1.7,1.8,4.4,2.7,6.8,2.4c4.7-0.7,7.2-5.6,7.8-9.9c0.6-4.6-0.6-10.3-3.4-14c-3-4.1-6.8-7.5-10.8-10.7c-7.2-5.9-15.2-11.7-20-19.9
		c-2.8-4.7-4.3-10.4-3.3-15.8c1-5.3,4.4-10,8.6-13.5c3.4-2.9,7.2-5,11.1-7.1c3-1.6,6.8-3.7,7.3-7.4c0.3-2.4-1.9-5.2-4.3-4.6
		c-2.2,0.5-3.2,3.2-5.3,4.2c-2.4,1-5-0.6-7.6-0.8c-2.3-0.2-4.6,0.7-6.8,1.5c-2.2,0.8-4.6,1.5-6.8,0.8C56.6,43.9,54.9,41.3,55.9,39.2
		z"/>
	<path class="st1" d="M85.8,34.7c1.3,0.5,2.6,0.9,3.9,1.6c1.2,0.7,2.4,1.6,3.2,2.8c1.5,2.5,1.3,5.7,0.3,8.4c-1,2.7-2.9,5-5.1,6.9
		c-2.1,1.9-4.5,3.4-6.8,5c-2.3,1.6-4.5,3.3-6.2,5.3c-0.9,1-1.6,2.1-2.2,3.3c-0.6,1.2-1,2.4-1.3,3.8c-1.2,5.2-0.2,10.9,2.2,15.7
		c2.4,4.9,6.1,9,10.1,12.8l6,5.8c2,1.9,4,4,5.7,6.2c0.9,1.1,1.7,2.3,2.5,3.5c0.7,1.2,1.5,2.4,2,3.8c1.3,2.6,2,5.3,2.3,8.2
		c0.1,1.4,0.2,2.8,0.1,4.3c-0.1,1.4-0.3,2.8-0.7,4.2c-0.3,1.4-0.9,2.7-1.5,3.9c-0.6,1.3-1.5,2.4-2.4,3.5c1.7-2.2,2.8-4.8,3.4-7.5
		c0.3-1.3,0.4-2.7,0.5-4.1c0-1.4-0.1-2.8-0.3-4.1c-0.4-2.7-1.2-5.4-2.5-7.8c-0.6-1.2-1.3-2.4-2.1-3.6c-0.8-1.1-1.6-2.2-2.5-3.3
		c-3.5-4.2-7.8-7.8-11.9-11.7c-4.1-3.8-8-8.1-10.6-13.3c-0.6-1.3-1.2-2.6-1.6-4c-0.4-1.4-0.8-2.8-1-4.2c-0.4-2.9-0.4-5.8,0.3-8.6
		c0.3-1.4,0.9-2.8,1.5-4.1c0.7-1.3,1.5-2.5,2.5-3.6c1.9-2.2,4.3-3.9,6.6-5.4c2.3-1.5,4.7-3,6.8-4.7c2.1-1.7,3.9-3.8,5-6.3
		c0.5-1.2,0.9-2.6,0.9-3.9c0-1.3-0.2-2.7-0.8-3.9c-0.6-1.2-1.7-2.1-2.9-2.8C88.4,35.8,87.1,35.2,85.8,34.7z"/>
	<path class="st2" d="M75.1,31.1c-1.3,1.1-1.4,3-0.3,4.2c1.1,1.3,3,1.4,4.2,0.3c1.3-1.1,1.4-3,0.3-4.2
		C78.3,30.2,76.4,30.1,75.1,31.1z"/>
	<path class="st3" d="M76.4,31.2c-0.6,0.5-0.6,1.4-0.1,1.9c0.5,0.6,1.4,0.6,1.9,0.1c0.6-0.5,0.6-1.4,0.1-1.9
		C77.9,30.8,77,30.7,76.4,31.2z"/>
	<path class="st1" d="M96.2,64.5c1.8,1.5,4.4,1.4,6.8,1.2c1.3-0.1,2.6-0.2,3.8-0.3c0.9-0.1,1.8-0.1,2.7,0.1c0.9,0.2,1.7,0.9,1.9,1.8
		c0.2,1-0.3,1.9-1,2.6c-1.5,1.4-3.6,2-5,3.5c-1.4,1.5-1.9,3.6-2.5,5.6c-0.6,2-1.4,4.1-3.1,5.2c-2.1,1.3-5.2,1-6.5,3
		c-0.2-4-2.9-7.8-6.7-9.3c0.2-2.8,2-5.3,3.9-7.3C92.3,68.6,94.7,66.8,96.2,64.5z"/>
</g>
</svg>
