<svg id="Layer_1" data-name="Layer 1" xmlns="http://www.w3.org/2000/svg" viewBox="0 0 192.94 192.94">
  <g>
    <rect x="28.46" y="27.97" width="143" height="115" style="fill: none;stroke: #a5d7e2;stroke-linecap: round;stroke-linejoin: round;stroke-width: 5px"/>
    <line x1="28.46" y1="47.11" x2="171.46" y2="47.11" style="fill: none;stroke: #a5d7e2;stroke-linecap: round;stroke-linejoin: round;stroke-width: 5px"/>
    <g>
      <line x1="134.46" y1="18.97" x2="134.46" y2="36.97" style="fill: none;stroke: #a5d7e2;stroke-linecap: round;stroke-linejoin: round;stroke-width: 5px"/>
      <line x1="65.46" y1="18.97" x2="65.46" y2="36.97" style="fill: none;stroke: #a5d7e2;stroke-linecap: round;stroke-linejoin: round;stroke-width: 5px"/>
    </g>
  </g>
  <path id="Path_59" data-name="Path 59" d="M102.8,74.57l5.34,10.81a3.14,3.14,0,0,0,2.38,1.73l11.93,1.74a3.17,3.17,0,0,1,1.76,5.4l-8.63,8.42a3.16,3.16,0,0,0-.92,2.8l2,11.88a3.16,3.16,0,0,1-2.59,3.66,3.12,3.12,0,0,1-2-.32l-10.67-5.61a3.2,3.2,0,0,0-3,0l-10.67,5.61a3.17,3.17,0,0,1-4.28-1.33,3.25,3.25,0,0,1-.32-2l2-11.88a3.13,3.13,0,0,0-.91-2.8l-8.63-8.42a3.16,3.16,0,0,1,1.76-5.4l11.92-1.74a3.14,3.14,0,0,0,2.39-1.73l5.33-10.81a3.17,3.17,0,0,1,5.69,0Z" style="fill: none;stroke: #a5d7e2;stroke-width: 5px"/>
</svg>
