<?xml version="1.0" encoding="utf-8"?>
<!-- Generator: Adobe Illustrator 24.3.0, SVG Export Plug-In . SVG Version: 6.00 Build 0)  -->
<svg version="1.1" id="Layer_1" xmlns="http://www.w3.org/2000/svg" xmlns:xlink="http://www.w3.org/1999/xlink" x="0px" y="0px"
	 viewBox="0 0 170 170" style="enable-background:new 0 0 170 170;" xml:space="preserve">
<style type="text/css">
	.st0{fill:#A6D7E2;}
	.st1{fill:#FFFFFF;}
	.st2{fill:none;stroke:#FFFFFF;stroke-width:1.5;stroke-linecap:round;stroke-linejoin:round;stroke-miterlimit:10;}
</style>
<circle id="Ellipse_4_2_" class="st0" cx="84.5" cy="84" r="82.2"/>
<g>
	<path class="st1" d="M41.1,73.7l1,6.4h0.3l1-6.4l7.2-22h7.7L44.5,89.5h-5.2L25.2,51.7h8.6L41.1,73.7z"/>
	<path class="st1" d="M75.8,80.9H64.3l-2.9,8.4H54l13.6-37.8H73l13.6,37.8h-7.7L75.8,80.9z M66.3,75.1h8.1l-2.9-8.4l-1.2-5.9H70
		l-1.2,5.9L66.3,75.1z"/>
	<path class="st1" d="M98.5,73.7l1,6.4h0.3l1-6.4l7.2-22h7.7l-13.9,37.8h-5.2L82.6,51.7h8.6L98.5,73.7z"/>
	<path class="st1" d="M118.5,51.7h22.3v6.5h-14.9V67h13.6v6.5h-13.6v9.2H141v6.5h-22.5V51.7z"/>
</g>
<g>
	<path class="st2" d="M24.3,118.4c8.9,0,9.2-7.6,17.6-7.6c-1.7,0-3.9,7.6,4.2,7.6c8.9,0,9.2-7.6,17.6-7.6c-1.7,0-3.9,7.6,4.2,7.6
		c8.9,0,9.2-7.6,17.6-7.6c-1.7,0-3.9,7.6,4.2,7.6c8.9,0,9.2-7.6,17.6-7.6c-1.7,0-3.9,7.6,4.2,7.6c8.9,0,9.2-7.6,17.6-7.6"/>
</g>
<g>
	<path class="st2" d="M37.7,135.2c8.9,0,9.2-7.6,17.6-7.6c-1.7,0-3.9,7.6,4.2,7.6c8.9,0,9.2-7.6,17.6-7.6c-1.7,0-3.9,7.6,4.2,7.6
		c8.9,0,9.2-7.6,17.6-7.6c-1.7,0-3.9,7.6,4.2,7.6c8.9,0,9.2-7.6,17.6-7.6c-1.7,0-3.9,7.6,4.2,7.6c8.9,0,9.2-7.6,17.6-7.6"/>
</g>
</svg>
