<svg width="0" height="0" class="hidden">

    <symbol xmlns="http://www.w3.org/2000/svg" viewBox="0 0 60 60" id="icon_camp">
      <title>icon_camp</title>
      <path fill="#a5d7e2" d="M57.916 42.768h-4.572c-.031-.093-.062-.218-.124-.28L30.949 11.57l5.319-7.372a.764.764 0 0 0-.187-1.089.764.764 0 0 0-1.089.187l-5.008 6.936-5.008-6.967c-.249-.342-.746-.435-1.089-.187s-.435.746-.187 1.089l5.319 7.372L6.748 42.457c-.062.093-.093.187-.124.28H2.052c-.435 0-.778.342-.778.778s.342.778.778.778h55.894c.435 0 .778-.342.778-.778s-.373-.746-.809-.746zm-27.154-.373v-8.709c.218.373.435.715.715 1.058 1.493 1.991 2.706 2.924 3.359 3.297-.218 2.208-1.897 4.012-4.075 4.355zm-1.555 0a4.856 4.856 0 0 1-4.075-4.323c.653-.404 1.866-1.306 3.359-3.297.249-.342.498-.715.715-1.089v8.709zm7.185-4.79c0-.311-.218-.622-.498-.715 0 0-1.337-.56-3.204-3.048a9.813 9.813 0 0 1-1.96-5.257V13.966l20.747 28.802h-17.76c1.649-1.182 2.675-3.048 2.675-5.163zm-7.185-23.639v14.588a9.811 9.811 0 0 1-1.96 5.257c-1.866 2.488-3.173 3.048-3.173 3.048a.767.767 0 0 0-.498.715 6.405 6.405 0 0 0 2.644 5.163H8.46l20.747-28.771z"></path>
    </symbol>

    <symbol xmlns="http://www.w3.org/2000/svg" viewBox="0 0 60 60" id="icon_camp_white">
      <title>icon_camp_white</title>
      <path fill="#fff" d="M57.916 42.768h-4.572c-.031-.093-.062-.218-.124-.28L30.949 11.57l5.319-7.372a.764.764 0 0 0-.187-1.089.764.764 0 0 0-1.089.187l-5.008 6.936-5.008-6.967c-.249-.342-.746-.435-1.089-.187s-.435.746-.187 1.089l5.319 7.372L6.748 42.457c-.062.093-.093.187-.124.28H2.052c-.435 0-.778.342-.778.778s.342.778.778.778h55.894c.435 0 .778-.342.778-.778s-.373-.746-.809-.746zm-27.154-.373v-8.709c.218.373.435.715.715 1.058 1.493 1.991 2.706 2.924 3.359 3.297-.218 2.208-1.897 4.012-4.075 4.355zm-1.555 0a4.856 4.856 0 0 1-4.075-4.323c.653-.404 1.866-1.306 3.359-3.297.249-.342.498-.715.715-1.089v8.709zm7.185-4.79c0-.311-.218-.622-.498-.715 0 0-1.337-.56-3.204-3.048a9.813 9.813 0 0 1-1.96-5.257V13.966l20.747 28.802h-17.76c1.649-1.182 2.675-3.048 2.675-5.163zm-7.185-23.639v14.588a9.811 9.811 0 0 1-1.96 5.257c-1.866 2.488-3.173 3.048-3.173 3.048a.767.767 0 0 0-.498.715 6.405 6.405 0 0 0 2.644 5.163H8.46l20.747-28.771z"></path>
    </symbol>

    <symbol xmlns="http://www.w3.org/2000/svg" viewBox="0 0 60 60" id="icon_event">
      <title>icon_event</title>
      <path fill="#a5d7e2" d="M53.344 7.932H42.613V5.91c0-.435-.342-.778-.778-.778s-.778.342-.778.778v2.022H21.15V5.91c0-.435-.342-.778-.778-.778s-.778.342-.778.778v2.022H8.863a.77.77 0 0 0-.778.778v35.77a.77.77 0 0 0 .778.778h44.479a.77.77 0 0 0 .778-.778V8.71a.79.79 0 0 0-.778-.778zM19.596 9.487v2.022c0 .435.342.778.778.778s.778-.342.778-.778V9.487h19.907v2.022c0 .435.342.778.778.778s.778-.342.778-.778V9.487h9.953v4.386H9.644V9.487h9.953zM9.642 43.701V15.427h42.924v28.274H9.642z"></path>
      <path fill="#a5d7e2" d="M38.196 26.874l-3.701-.529c-.062 0-.124-.062-.156-.124l-1.897-3.826h-.124a2.551 2.551 0 0 0-.467-.342c-.435-.218-.902-.249-1.337-.093s-.809.467-1.026.902l-1.649 3.359c-.031.062-.093.093-.156.124l-3.732.529a1.923 1.923 0 0 0-1.026.529c-.342.342-.498.778-.498 1.244s.187.902.529 1.244l2.675 2.613c.062.031.062.124.062.187l-.622 3.701c-.062.373 0 .746.187 1.12a1.79 1.79 0 0 0 2.395.746l3.328-1.742c.062-.031.124-.031.218 0l3.328 1.742c.249.124.56.218.809.218.093 0 .187 0 .28-.031h.062a1.776 1.776 0 0 0 1.4-2.022l-.622-3.701c0-.062 0-.124.062-.187l2.675-2.675c.28-.28.467-.622.498-.995.062-.467-.062-.933-.342-1.306s-.684-.622-1.151-.684zm-.093 1.897l-2.675 2.613c-.404.404-.622.995-.498 1.555l.622 3.701c.031.124-.062.218-.156.249-.031 0-.093 0-.124-.031l-3.328-1.742c-.249-.124-.56-.218-.84-.218s-.56.062-.84.218l-3.328 1.742c-.093.062-.218 0-.28-.093-.031-.031-.031-.093-.031-.124l.622-3.701a1.8 1.8 0 0 0-.498-1.555l-2.675-2.613c-.093-.093-.093-.218 0-.28.031-.031.062-.062.124-.062l3.701-.529c.591-.093 1.089-.435 1.337-.964l1.649-3.359c.031-.062.093-.093.124-.093s.093-.031.156 0l.093.093.249.467h.031l1.431 2.893c.249.529.746.871 1.337.964l3.701.529c.062 0 .124.062.124.093.031.031.062.093.031.156-.031 0-.031.062-.062.093z"></path>
    </symbol>

    <symbol xmlns="http://www.w3.org/2000/svg" viewBox="0 0 60 60" id="icon_event_white">
      <title>icon_event_white</title>
      <path fill="#fff" d="M53.344 7.932H42.613V5.91c0-.435-.342-.778-.778-.778s-.778.342-.778.778v2.022H21.15V5.91c0-.435-.342-.778-.778-.778s-.778.342-.778.778v2.022H8.863a.77.77 0 0 0-.778.778v35.77a.77.77 0 0 0 .778.778h44.479a.77.77 0 0 0 .778-.778V8.71a.79.79 0 0 0-.778-.778zM19.596 9.487v2.022c0 .435.342.778.778.778s.778-.342.778-.778V9.487h19.907v2.022c0 .435.342.778.778.778s.778-.342.778-.778V9.487h9.953v4.386H9.644V9.487h9.953zM9.642 43.701V15.427h42.924v28.274H9.642z"></path>
      <path fill="#fff" d="M38.196 26.874l-3.701-.529c-.062 0-.124-.062-.156-.124l-1.897-3.826h-.124a2.551 2.551 0 0 0-.467-.342c-.435-.218-.902-.249-1.337-.093s-.809.467-1.026.902l-1.649 3.359c-.031.062-.093.093-.156.124l-3.732.529a1.923 1.923 0 0 0-1.026.529c-.342.342-.498.778-.498 1.244s.187.902.529 1.244l2.675 2.613c.062.031.062.124.062.187l-.622 3.701c-.062.373 0 .746.187 1.12a1.79 1.79 0 0 0 2.395.746l3.328-1.742c.062-.031.124-.031.218 0l3.328 1.742c.249.124.56.218.809.218.093 0 .187 0 .28-.031h.062a1.776 1.776 0 0 0 1.4-2.022l-.622-3.701c0-.062 0-.124.062-.187l2.675-2.675c.28-.28.467-.622.498-.995.062-.467-.062-.933-.342-1.306s-.684-.622-1.151-.684zm-.093 1.897l-2.675 2.613c-.404.404-.622.995-.498 1.555l.622 3.701c.031.124-.062.218-.156.249-.031 0-.093 0-.124-.031l-3.328-1.742c-.249-.124-.56-.218-.84-.218s-.56.062-.84.218l-3.328 1.742c-.093.062-.218 0-.28-.093-.031-.031-.031-.093-.031-.124l.622-3.701a1.8 1.8 0 0 0-.498-1.555l-2.675-2.613c-.093-.093-.093-.218 0-.28.031-.031.062-.062.124-.062l3.701-.529c.591-.093 1.089-.435 1.337-.964l1.649-3.359c.031-.062.093-.093.124-.093s.093-.031.156 0l.093.093.249.467h.031l1.431 2.893c.249.529.746.871 1.337.964l3.701.529c.062 0 .124.062.124.093.031.031.062.093.031.156-.031 0-.031.062-.062.093z"></path>
    </symbol>

    <symbol xmlns="http://www.w3.org/2000/svg" viewBox="0 0 60 60" id="icon_logout">
      <title>icon_logout</title>
      <path fill="#a5d7e2" d="M51.788 31.571c0-11.82-9.642-21.462-21.462-21.462S8.864 19.751 8.864 31.571c0 11.446 9.02 20.84 20.342 21.431v5.412c0 .435.342.778.778.778s.778-.342.778-.778v-5.381c11.633-.249 21.026-9.767 21.026-21.462zM30.762 51.477V29.984c0-.435-.342-.778-.778-.778s-.778.342-.778.778v21.462c-10.451-.591-18.787-9.269-18.787-19.876 0-10.98 8.927-19.907 19.907-19.907S50.233 20.59 50.233 31.57c0 10.824-8.709 19.658-19.471 19.907z"></path>
    </symbol>

    <symbol xmlns="http://www.w3.org/2000/svg" viewBox="0 0 60 60" id="icon_location">
      <title>icon_location</title>
      <path fill="#a5d7e2" d="M30.016 32.815c-5.319 0-9.642-4.323-9.642-9.642s4.323-9.642 9.642-9.642 9.642 4.323 9.642 9.642-4.323 9.642-9.642 9.642zm0-17.729c-4.448 0-8.087 3.639-8.087 8.087s3.639 8.087 8.087 8.087 8.087-3.639 8.087-8.087-3.639-8.087-8.087-8.087z"></path>
      <path fill="#a5d7e2" d="M30.389 52.784a.759.759 0 0 1-.653-.373L16.423 30.203c0-.031-.031-.062-.031-.062a15.83 15.83 0 0 1 .902-14.899c2.582-4.386 7.185-7.123 12.255-7.372h.404a9.182 9.182 0 0 1 1.306 0 15.072 15.072 0 0 1 12.255 7.372c0 .031.031.062.031.062a15.905 15.905 0 0 1 .84 14.806c0 .031-.031.062-.031.062L31.041 52.38a.724.724 0 0 1-.653.404zM17.792 29.456l12.597 21.026 12.597-21.058a14.333 14.333 0 0 0-.84-13.406c-.031-.031-.031-.062-.031-.093-2.333-3.888-6.407-6.314-10.949-6.532a7.131 7.131 0 0 0-1.151 0h-.404A13.642 13.642 0 0 0 18.6 16.049a14.334 14.334 0 0 0-.809 13.406zm25.878.342z"></path>
    </symbol>

    <symbol xmlns="http://www.w3.org/2000/svg" viewBox="0 0 60 60" id="icon_location_white">
      <title>icon_location_white</title>
      <path fill="#fff" d="M30.016 32.815c-5.319 0-9.642-4.323-9.642-9.642s4.323-9.642 9.642-9.642 9.642 4.323 9.642 9.642-4.323 9.642-9.642 9.642zm0-17.729c-4.448 0-8.087 3.639-8.087 8.087s3.639 8.087 8.087 8.087 8.087-3.639 8.087-8.087-3.639-8.087-8.087-8.087z"></path>
      <path fill="#fff" d="M30.389 52.784a.759.759 0 0 1-.653-.373L16.423 30.203c0-.031-.031-.062-.031-.062a15.83 15.83 0 0 1 .902-14.899c2.582-4.386 7.185-7.123 12.255-7.372h.404a9.182 9.182 0 0 1 1.306 0 15.072 15.072 0 0 1 12.255 7.372c0 .031.031.062.031.062a15.905 15.905 0 0 1 .84 14.806c0 .031-.031.062-.031.062L31.041 52.38a.724.724 0 0 1-.653.404zM17.792 29.456l12.597 21.026 12.597-21.058a14.333 14.333 0 0 0-.84-13.406c-.031-.031-.031-.062-.031-.093-2.333-3.888-6.407-6.314-10.949-6.532a7.131 7.131 0 0 0-1.151 0h-.404A13.642 13.642 0 0 0 18.6 16.049a14.334 14.334 0 0 0-.809 13.406zm25.878.342z"></path>
    </symbol>    

    <symbol xmlns="http://www.w3.org/2000/svg" viewBox="0 0 60 60" id="icon_menu">
      <title>icon_menu</title>
      <path fill="#fff" d="M45.723 17.885H14.93c-.435 0-.778-.342-.778-.778s.342-.778.778-.778h30.793c.435 0 .778.342.778.778s-.342.778-.778.778zm0 14.463H14.93c-.435 0-.778-.342-.778-.778s.342-.778.778-.778h30.793c.435 0 .778.342.778.778s-.342.778-.778.778zm0 14.464H14.93c-.435 0-.778-.342-.778-.778s.342-.778.778-.778h30.793c.435 0 .778.342.778.778s-.342.778-.778.778z"></path>
    </symbol>

    <symbol xmlns="http://www.w3.org/2000/svg" viewBox="0 0 60 60" id="icon_menu_dark">
      <title>icon_menu_dark</title>
      <path fill="#7079B6" d="M45.723 17.885H14.93c-.435 0-.778-.342-.778-.778s.342-.778.778-.778h30.793c.435 0 .778.342.778.778s-.342.778-.778.778zm0 14.463H14.93c-.435 0-.778-.342-.778-.778s.342-.778.778-.778h30.793c.435 0 .778.342.778.778s-.342.778-.778.778zm0 14.464H14.93c-.435 0-.778-.342-.778-.778s.342-.778.778-.778h30.793c.435 0 .778.342.778.778s-.342.778-.778.778z"></path>
    </symbol>

    <symbol xmlns="http://www.w3.org/2000/svg" viewBox="0 0 60 60" id="icon_close">
      <title>icon_close</title>
      <path class="#fff" d="M40.7,43L18.9,21.2c-0.3-0.3-0.3-0.8,0-1.1c0.3-0.3,0.8-0.3,1.1,0l21.8,21.8c0.3,0.3,0.3,0.8,0,1.1 C41.5,43.3,41,43.3,40.7,43z"/>
      <path class="#fff" d="M18.9,41.9l21.8-21.8c0.3-0.3,0.8-0.3,1.1,0c0.3,0.3,0.3,0.8,0,1.1L20,43c-0.3,0.3-0.8,0.3-1.1,0 C18.6,42.7,18.6,42.2,18.9,41.9z"/>    
    </symbol>

    <symbol xmlns="http://www.w3.org/2000/svg" viewBox="0 0 60 60" id="icon_time">
      <title>icon_time</title>
      <path fill="#a5d7e2" d="M29.922 52.628c-11.82 0-21.462-9.642-21.462-21.462S18.102 9.704 29.922 9.704s21.462 9.642 21.462 21.462-9.611 21.462-21.462 21.462zm0-41.368c-10.98 0-19.907 8.927-19.907 19.907s8.927 19.907 19.907 19.907 19.907-8.927 19.907-19.907S40.902 11.26 29.922 11.26z"></path>
      <path fill="#a5d7e2" d="M30.793 28.523V14.775c0-.435-.342-.778-.778-.778s-.778.342-.778.778v13.686a2.8 2.8 0 0 0-2.115 2.706c0 .156.031.311.031.435l-6.19 2.644c-.404.156-.591.622-.404 1.026.124.28.404.467.715.467.093 0 .218-.031.311-.062l6.221-2.675c.498.591 1.244.933 2.084.933a2.787 2.787 0 0 0 2.799-2.799c.031-1.213-.778-2.271-1.897-2.613z"></path>
    </symbol>

    <symbol xmlns="http://www.w3.org/2000/svg" viewBox="0 0 60 60" id="icon_time_white">
      <title>icon_time_white</title>
      <path fill="#fff" d="M29.922 52.628c-11.82 0-21.462-9.642-21.462-21.462S18.102 9.704 29.922 9.704s21.462 9.642 21.462 21.462-9.611 21.462-21.462 21.462zm0-41.368c-10.98 0-19.907 8.927-19.907 19.907s8.927 19.907 19.907 19.907 19.907-8.927 19.907-19.907S40.902 11.26 29.922 11.26z"></path>
      <path fill="#fff" d="M30.793 28.523V14.775c0-.435-.342-.778-.778-.778s-.778.342-.778.778v13.686a2.8 2.8 0 0 0-2.115 2.706c0 .156.031.311.031.435l-6.19 2.644c-.404.156-.591.622-.404 1.026.124.28.404.467.715.467.093 0 .218-.031.311-.062l6.221-2.675c.498.591 1.244.933 2.084.933a2.787 2.787 0 0 0 2.799-2.799c.031-1.213-.778-2.271-1.897-2.613z"></path>
    </symbol>

    <symbol xmlns="http://www.w3.org/2000/svg" viewBox="0 0 60 60" id="icon-social_facebook">
      <title>icon-social_facebook</title>
      <path fill="#fff" d="M30.016 51.477c-11.82 0-21.462-9.642-21.462-21.462S18.196 8.553 30.016 8.553s21.462 9.642 21.462 21.462-9.642 21.462-21.462 21.462zm0-41.368c-10.98 0-19.907 8.927-19.907 19.907s8.927 19.907 19.907 19.907 19.907-8.927 19.907-19.907-8.927-19.907-19.907-19.907z"></path>
      <path fill="#fff" d="M27.558 42.831h4.977V30.327h3.484l.373-4.168h-3.857v-2.395c0-.995.187-1.369 1.151-1.369h2.706V18.04h-3.453c-3.701 0-5.381 1.617-5.381 4.759v3.328h-2.582v4.23h2.582V42.83z"></path>
    </symbol>

    <symbol xmlns="http://www.w3.org/2000/svg" viewBox="0 0 60 60" id="icon-social_insta">
      <title>icon-social_insta</title>
      <path fill="#fff" d="M30.016 51.477c-11.82 0-21.462-9.642-21.462-21.462S18.196 8.553 30.016 8.553s21.462 9.642 21.462 21.462-9.642 21.462-21.462 21.462zm0-41.368c-10.98 0-19.907 8.927-19.907 19.907s8.927 19.907 19.907 19.907 19.907-8.927 19.907-19.907-8.927-19.907-19.907-19.907z"></path>
      <path fill="#fff" d="M30.358 20.311c2.986 0 3.359 0 4.541.062.715 0 1.431.124 2.084.373a3.638 3.638 0 0 1 2.115 2.115c.249.653.373 1.369.373 2.084.062 1.182.062 1.555.062 4.541s0 3.359-.062 4.541c0 .715-.156 1.431-.373 2.084a3.87 3.87 0 0 1-2.115 2.146 6.01 6.01 0 0 1-2.084.373c-1.182.062-1.524.062-4.541.062s-3.359 0-4.541-.062a5.883 5.883 0 0 1-2.084-.373 3.69 3.69 0 0 1-2.115-2.146 5.883 5.883 0 0 1-.373-2.084c-.062-1.182-.062-1.524-.062-4.541s0-3.359.062-4.541c0-.715.156-1.431.373-2.084a3.638 3.638 0 0 1 2.115-2.115 5.883 5.883 0 0 1 2.084-.373c1.182-.062 1.524-.062 4.541-.062zm0-2.022c-3.048 0-3.421 0-4.635.062-.933.031-1.835.187-2.706.529a5.74 5.74 0 0 0-3.297 3.297 9.09 9.09 0 0 0-.529 2.737c-.062 1.182-.062 1.586-.062 4.635s0 3.421.062 4.635c.031.933.187 1.866.529 2.737a5.828 5.828 0 0 0 3.297 3.297 9.09 9.09 0 0 0 2.737.529c1.182.062 1.586.062 4.635.062s3.421 0 4.635-.062c.933-.031 1.866-.187 2.737-.529a5.74 5.74 0 0 0 3.297-3.297c.342-.871.498-1.804.529-2.737.062-1.182.062-1.586.062-4.635s0-3.421-.062-4.635c-.031-.933-.187-1.866-.529-2.737a5.74 5.74 0 0 0-3.297-3.297c-.871-.342-1.804-.498-2.737-.529-1.213-.062-1.617-.062-4.666-.062z"></path>
      <path fill="#fff" d="M30.358 23.733c-3.173 0-5.754 2.582-5.754 5.754s2.582 5.754 5.754 5.754 5.754-2.582 5.754-5.754c.031-3.173-2.551-5.754-5.754-5.754zm0 9.517c-2.053 0-3.732-1.68-3.732-3.732s1.68-3.732 3.732-3.732 3.732 1.68 3.732 3.732a3.723 3.723 0 0 1-3.732 3.732zm7.34-9.735c0 .746-.591 1.337-1.337 1.337s-1.337-.591-1.337-1.337.591-1.337 1.337-1.337 1.337.591 1.337 1.337z"></path>
    </symbol>

    <symbol xmlns="http://www.w3.org/2000/svg" viewBox="0 0 60 60" id="icon_sport">
      <title>icon_sport</title>
      <path fill="#a5d7e2" d="M53.468 26.128h-.187v-1.182a2.807 2.807 0 0 0-2.799-2.799h-1.711c-.435 0-.871.093-1.244.311v-2.986c0-2.302-1.897-4.199-4.199-4.199h-1.524c-2.302 0-4.199 1.897-4.199 4.199v6.656H22.862v-6.687c0-2.302-1.897-4.199-4.199-4.199H17.17c-2.302 0-4.199 1.897-4.199 4.199v2.986a2.827 2.827 0 0 0-1.244-.311h-1.711c-1.555 0-2.799 1.275-2.799 2.83v1.182H7.03c-1.897 0-3.421 1.555-3.421 3.453v1.555a3.465 3.465 0 0 0 3.453 3.453h.156v.778a2.807 2.807 0 0 0 2.799 2.799h1.711c.435 0 .871-.093 1.244-.311v2.986c0 2.302 1.897 4.199 4.199 4.199h1.493c2.302 0 4.199-1.897 4.199-4.199v-6.314h14.712v6.314c0 2.302 1.897 4.199 4.199 4.199h1.524c2.302 0 4.199-1.897 4.199-4.199v-2.986c.373.187.809.311 1.244.311h1.711a2.807 2.807 0 0 0 2.799-2.799v-.809h.187a3.465 3.465 0 0 0 3.453-3.453V29.55a3.411 3.411 0 0 0-3.421-3.421zM7.03 33.033a1.885 1.885 0 0 1-1.897-1.897v-1.555c0-1.026.84-1.897 1.866-1.897h.187v5.35H7.03zm4.696 3.608h-1.711c-.684 0-1.244-.56-1.244-1.244V24.946c0-.684.56-1.275 1.244-1.275h1.711c.653 0 1.213.529 1.244 1.182V35.46c-.062.653-.591 1.182-1.244 1.182zm6.937 6.905H17.17a2.642 2.642 0 0 1-2.644-2.644V19.47a2.642 2.642 0 0 1 2.644-2.644h1.493a2.642 2.642 0 0 1 2.644 2.644V40.9c0 1.431-1.182 2.644-2.644 2.644zm4.199-10.544v-5.319h14.712v5.319H22.862zm20.435 10.544h-1.524a2.642 2.642 0 0 1-2.644-2.644v-21.43a2.642 2.642 0 0 1 2.644-2.644h1.524a2.642 2.642 0 0 1 2.644 2.644v21.432c0 1.431-1.182 2.644-2.644 2.644zm8.429-8.181c0 .684-.56 1.244-1.244 1.244h-1.711a1.257 1.257 0 0 1-1.244-1.182V24.852c.062-.653.591-1.182 1.244-1.182h1.711c.684 0 1.244.56 1.275 1.275v10.42zm3.639-4.261c0 1.058-.84 1.897-1.897 1.897h-.187v-5.319h.187c1.026 0 1.897.84 1.897 1.866v1.555z"></path>
    </symbol>

    <symbol xmlns="http://www.w3.org/2000/svg" viewBox="0 0 60 60" id="icon_sport_white">
      <title>icon_sport_white</title>
      <path fill="#fff" d="M53.468 26.128h-.187v-1.182a2.807 2.807 0 0 0-2.799-2.799h-1.711c-.435 0-.871.093-1.244.311v-2.986c0-2.302-1.897-4.199-4.199-4.199h-1.524c-2.302 0-4.199 1.897-4.199 4.199v6.656H22.862v-6.687c0-2.302-1.897-4.199-4.199-4.199H17.17c-2.302 0-4.199 1.897-4.199 4.199v2.986a2.827 2.827 0 0 0-1.244-.311h-1.711c-1.555 0-2.799 1.275-2.799 2.83v1.182H7.03c-1.897 0-3.421 1.555-3.421 3.453v1.555a3.465 3.465 0 0 0 3.453 3.453h.156v.778a2.807 2.807 0 0 0 2.799 2.799h1.711c.435 0 .871-.093 1.244-.311v2.986c0 2.302 1.897 4.199 4.199 4.199h1.493c2.302 0 4.199-1.897 4.199-4.199v-6.314h14.712v6.314c0 2.302 1.897 4.199 4.199 4.199h1.524c2.302 0 4.199-1.897 4.199-4.199v-2.986c.373.187.809.311 1.244.311h1.711a2.807 2.807 0 0 0 2.799-2.799v-.809h.187a3.465 3.465 0 0 0 3.453-3.453V29.55a3.411 3.411 0 0 0-3.421-3.421zM7.03 33.033a1.885 1.885 0 0 1-1.897-1.897v-1.555c0-1.026.84-1.897 1.866-1.897h.187v5.35H7.03zm4.696 3.608h-1.711c-.684 0-1.244-.56-1.244-1.244V24.946c0-.684.56-1.275 1.244-1.275h1.711c.653 0 1.213.529 1.244 1.182V35.46c-.062.653-.591 1.182-1.244 1.182zm6.937 6.905H17.17a2.642 2.642 0 0 1-2.644-2.644V19.47a2.642 2.642 0 0 1 2.644-2.644h1.493a2.642 2.642 0 0 1 2.644 2.644V40.9c0 1.431-1.182 2.644-2.644 2.644zm4.199-10.544v-5.319h14.712v5.319H22.862zm20.435 10.544h-1.524a2.642 2.642 0 0 1-2.644-2.644v-21.43a2.642 2.642 0 0 1 2.644-2.644h1.524a2.642 2.642 0 0 1 2.644 2.644v21.432c0 1.431-1.182 2.644-2.644 2.644zm8.429-8.181c0 .684-.56 1.244-1.244 1.244h-1.711a1.257 1.257 0 0 1-1.244-1.182V24.852c.062-.653.591-1.182 1.244-1.182h1.711c.684 0 1.244.56 1.275 1.275v10.42zm3.639-4.261c0 1.058-.84 1.897-1.897 1.897h-.187v-5.319h.187c1.026 0 1.897.84 1.897 1.866v1.555z"></path>
    </symbol>

    <symbol xmlns="http://www.w3.org/2000/svg" viewBox="0 0 60 60" id="icon_login">
      <title>icon_login</title>
      <path fill="#fff" d="M30.327 10.109c-11.82 0-21.462 9.642-21.462 21.462s9.642 21.462 21.462 21.462 21.462-9.642 21.462-21.462-9.642-21.462-21.462-21.462zm-11.82 37.48c.093-6.47 5.35-11.664 11.82-11.664s11.726 5.194 11.82 11.664c-3.297 2.457-7.403 3.888-11.82 3.888s-8.523-1.462-11.82-3.888zm25.132-1.213a13.41 13.41 0 0 0-9.207-11.353C37.698 33.468 40 30.14 40 26.283c0-5.319-4.323-9.642-9.642-9.642s-9.642 4.323-9.642 9.642c0 3.857 2.271 7.185 5.568 8.74-4.946 1.586-8.678 6.003-9.207 11.353a19.87 19.87 0 0 1-6.594-14.806c0-10.98 8.927-19.907 19.907-19.907S50.297 20.59 50.297 31.57c-.062 5.879-2.613 11.135-6.656 14.806zM30.327 34.37c-4.448 0-8.087-3.639-8.087-8.087s3.639-8.087 8.087-8.087 8.087 3.639 8.087 8.087-3.639 8.087-8.087 8.087z"></path>
    </symbol>

    <symbol xmlns="http://www.w3.org/2000/svg" viewBox="0 0 60 60" id="icon-social_youtube">
      <title>icon-social_youtube</title>
      <path fill="#fff" d="M30.016 51.477c-11.82 0-21.462-9.642-21.462-21.462S18.196 8.553 30.016 8.553s21.462 9.642 21.462 21.462-9.642 21.462-21.462 21.462zm0-41.368c-10.98 0-19.907 8.927-19.907 19.907s8.927 19.907 19.907 19.907 19.907-8.927 19.907-19.907-8.927-19.907-19.907-19.907z"></path>
      <path fill="#fff" d="M42.706 23.795a3.29 3.29 0 0 0-2.302-2.333c-2.053-.56-10.202-.56-10.202-.56s-8.18 0-10.202.56c-1.12.311-2.022 1.182-2.302 2.333-.591 2.053-.591 6.314-.591 6.314s0 4.292.56 6.314c.311 1.12 1.182 2.022 2.302 2.333 2.053.56 10.202.56 10.202.56s8.18 0 10.202-.56c1.12-.311 2.022-1.182 2.302-2.333.56-2.053.56-6.314.56-6.314s.031-4.261-.529-6.314zM27.527 34.028v-7.776l6.843 3.888-6.843 3.888z"></path>
    </symbol>

    <symbol xmlns="http://www.w3.org/2000/svg" viewBox="0 0 192.9 192.9"  id="icon_price"	>
      <title>icon_price</title>
      <g>
        <path fill="#a5d7e2" d="M120.2,76.1h-10.9v-4.6c0-6.6-5.3-11.9-11.9-11.9c-6.6,0-11.9,5.3-11.9,11.9v4.6H73.4c-1.4,0-2.5,1.1-2.5,2.5
          V132c0,1.4,1.1,2.5,2.5,2.5h46.8c1.4,0,2.5-1.1,2.5-2.5V78.6C122.7,77.2,121.6,76.1,120.2,76.1z M90.5,71.5c0-3.8,3.1-6.9,6.9-6.9
          s6.9,3.1,6.9,6.9v4.6H90.5V71.5z M117.7,129.5H75.9V81.1h9.6v5.7c0,1.4,1.1,2.5,2.5,2.5s2.5-1.1,2.5-2.5v-5.7h13.8v5.6
          c0,1.4,1.1,2.5,2.5,2.5s2.5-1.1,2.5-2.5v-5.6h8.4V129.5z"/>
        <path fill="#a5d7e2" d="M96.8,18c-43.6,0-79,35.4-79,79s35.4,79,79,79s79-35.4,79-79S140.4,18,96.8,18z M96.8,171
          c-40.8,0-74-33.2-74-74s33.2-74,74-74s74,33.2,74,74S137.6,171,96.8,171z"/>
      </g>
   </symbol>


  </svg>