<?xml version="1.0" encoding="utf-8"?>
<!-- Generator: Adobe Illustrator 24.1.3, SVG Export Plug-In . SVG Version: 6.00 Build 0)  -->
<svg version="1.1" id="Layer_1" xmlns="http://www.w3.org/2000/svg" xmlns:xlink="http://www.w3.org/1999/xlink" x="0px" y="0px"
	 viewBox="0 0 1920 1359" style="enable-background:new 0 0 1920 1359;" xml:space="preserve">
<style type="text/css">
	.st0{fill:url(#SVGID_1_);}
	.st1{fill:url(#SVGID_2_);}
</style>
<linearGradient id="SVGID_1_" gradientUnits="userSpaceOnUse" x1="875.6677" y1="696.8137" x2="875.6801" y2="694.6168" gradientTransform="matrix(2629.5088 0 0 -1514.0253 -2301629.5 1053951.625)">
	<stop  offset="0.189" style="stop-color:#5E8AC2"/>
	<stop  offset="0.647" style="stop-color:#69C0E9"/>
	<stop  offset="1" style="stop-color:#A5D7E2"/>
</linearGradient>
<path class="st0" d="M5.7,581.7c144.8,64.4,280.3,142,433.4,195.4c152.8,53.4,319.8,81.5,487.3,99.7c325,35.5,668.7,33.4,967.9-66.4
	c1.8-0.6,3.6-1.3,5.4-1.9c6.8,2.6,13.6,5.1,20.3,7.7V140.7c-112.5-31.1-223.7-68.1-336.5-96c-86.4-21.3-173.8-37.2-263.5-40.9
	C1155-2.9,992.4,32.5,838,86.4l-4.4,1.6c-47.4,16.7-93.9,35-139.6,54.5c-33.4,14.3-66.6,29.1-99.8,44.1
	c-110.8,50-221.2,100.8-340,133c-81.6,22.1-169,34.4-254.2,30.9v232.5C1.9,582.5,3.8,582.1,5.7,581.7z"/>
<linearGradient id="SVGID_2_" gradientUnits="userSpaceOnUse" x1="960" y1="1453.3428" x2="960" y2="615.2825">
	<stop  offset="5.500000e-02" style="stop-color:#6864AA"/>
	<stop  offset="0.605" style="stop-color:#5E8AC2"/>
</linearGradient>
<path class="st1" d="M1894.2,810.5c-299.2,99.8-642.9,101.8-967.9,66.4c-167.4-18.3-334.4-46.3-487.3-99.7
	C286,723.6,150.5,646.1,5.7,581.7c-1.9,0.4-5.7-2.8-5.7-2.8v527.2V1257v102h1920v-102v-19.4V801.3
	C1920,801.3,1896.1,809.9,1894.2,810.5z"/>
</svg>
